<?xml version="1.0" encoding="iso-8859-1"?>
<!-- Generator: Adobe Illustrator 21.0.0, SVG Export Plug-In . SVG Version: 6.00 Build 0)  -->
<svg xmlns="http://www.w3.org/2000/svg" xmlns:xlink="http://www.w3.org/1999/xlink" version="1.1" id="Capa_1" x="0px" y="0px" viewBox="0 0 512 512" style="enable-background:new 0 0 512 512;" xml:space="preserve" width="512" height="512">
<g>
	<rect x="140.813" y="258.828" width="61.934" height="30"/>
	<rect x="225.033" y="258.828" width="61.934" height="30"/>
	<rect x="309.254" y="258.828" width="61.934" height="30"/>
	<rect x="140.813" y="318.828" width="61.934" height="30"/>
	<rect x="225.033" y="318.828" width="61.934" height="30"/>
	<rect x="309.254" y="318.828" width="61.934" height="30"/>
	<rect x="140.813" y="378.828" width="61.934" height="30"/>
	<rect x="225.033" y="378.828" width="61.934" height="30"/>
	<rect x="309.254" y="378.828" width="61.934" height="30"/>
	<path d="M512,136.621l-0.012-0.592c-1.359-34.422-30.107-65.695-80.948-88.058C383.816,27.199,321.652,15.759,256,15.759   c-66.438,0-129.134,11.677-176.537,32.88C28.221,71.559,0,103.492,0,138.555v85.457h61.841l-53.503,168.1v104.13h495.324v-104.13   l-53.503-168.1H512V136.621z M473.662,396.77v69.471H38.338V396.77l54.986-172.759h76.961v-68.614   c26.873-5.251,55.394-7.909,84.964-7.909c30.155,0,59.183,2.755,86.468,8.199v68.324h76.961L473.662,396.77z M482,194.011H371.716   v-62.351l-11.609-2.694c-32.827-7.617-68.106-11.479-104.858-11.479c-36.127,0-70.881,3.743-103.295,11.125l-11.669,2.658v62.74H30   v-55.457c0-22.197,22.493-44.988,61.712-62.53C135.346,56.508,193.691,45.759,256,45.759c61.586,0,119.46,10.538,162.961,29.672   C458,92.604,480.954,115.01,482,136.945V194.011z"/>
</g>















</svg>
