<?xml version="1.0" encoding="utf-8"?>
<!-- Generator: Adobe Illustrator 24.0.1, SVG Export Plug-In . SVG Version: 6.00 Build 0)  -->
<svg version="1.0" id="Capa_1" xmlns="http://www.w3.org/2000/svg" xmlns:xlink="http://www.w3.org/1999/xlink" x="0px" y="0px"
	 viewBox="0 0 188.95 34.01" style="enable-background:new 0 0 188.95 34.01;" xml:space="preserve">
<style type="text/css">
	.st0{fill:#FFFFFF;}
	.st1{fill:url(#SVGID_1_);}
	.st2{fill:url(#SVGID_2_);}
	.st3{fill:url(#SVGID_3_);}
	.st4{fill:url(#SVGID_4_);}
</style>
<path class="st0" d="M46.58,20.77c0.29,0.57,0.69,1.03,1.18,1.38c0.49,0.35,1.06,0.61,1.72,0.78c0.66,0.17,1.35,0.26,2.05,0.26
	c0.48,0,0.99-0.04,1.54-0.12c0.54-0.08,1.06-0.24,1.54-0.46c0.48-0.23,0.88-0.54,1.19-0.94c0.32-0.4,0.48-0.9,0.48-1.52
	c0-0.66-0.21-1.2-0.63-1.61c-0.42-0.41-0.97-0.75-1.66-1.02c-0.68-0.27-1.46-0.51-2.32-0.72c-0.86-0.2-1.73-0.44-2.62-0.68
	c-0.91-0.23-1.8-0.5-2.66-0.84c-0.87-0.33-1.64-0.75-2.32-1.28c-0.69-0.52-1.23-1.18-1.65-1.96c-0.42-0.79-0.63-1.74-0.63-2.85
	c0-1.25,0.27-2.34,0.8-3.26c0.54-0.92,1.23-1.69,2.1-2.3c0.87-0.61,1.85-1.07,2.93-1.37c1.1-0.29,2.19-0.44,3.28-0.44
	c1.27,0,2.49,0.14,3.67,0.43c1.17,0.28,2.21,0.74,3.12,1.38c0.91,0.64,1.63,1.45,2.17,2.44c0.54,0.99,0.8,2.19,0.8,3.6h-5.18
	c-0.05-0.73-0.2-1.33-0.47-1.81c-0.26-0.48-0.61-0.86-1.04-1.13c-0.43-0.27-0.92-0.47-1.48-0.58C51.9,6.05,51.29,6,50.64,6
	c-0.43,0-0.87,0.05-1.3,0.14c-0.43,0.09-0.82,0.25-1.18,0.48c-0.35,0.23-0.64,0.51-0.87,0.85c-0.22,0.34-0.34,0.77-0.34,1.3
	c0,0.48,0.09,0.87,0.27,1.16c0.18,0.3,0.54,0.57,1.08,0.82c0.53,0.25,1.27,0.5,2.21,0.75c0.94,0.25,2.17,0.57,3.7,0.96
	c0.45,0.09,1.09,0.25,1.9,0.49c0.81,0.24,1.61,0.62,2.41,1.14c0.79,0.52,1.48,1.22,2.06,2.1c0.58,0.87,0.87,1.99,0.87,3.36
	c0,1.11-0.21,2.15-0.65,3.1c-0.43,0.96-1.07,1.78-1.92,2.48c-0.86,0.69-1.91,1.23-3.17,1.62c-1.26,0.39-2.73,0.58-4.38,0.58
	c-1.34,0-2.65-0.16-3.91-0.49c-1.26-0.33-2.38-0.85-3.34-1.55c-0.97-0.7-1.74-1.6-2.3-2.69c-0.57-1.09-0.84-2.39-0.82-3.89h5.18
	C46.13,19.5,46.29,20.2,46.58,20.77"/>
<path class="st0" d="M90.5,0.51h5.14v4.24H90.5V0.51z M95.64,26.35H90.5V7.64h5.14V26.35z"/>
<path class="st0" d="M143.83,7.64v2.61h0.11c0.65-1.09,1.5-1.88,2.54-2.38c1.04-0.49,2.1-0.74,3.18-0.74c1.38,0,2.51,0.19,3.39,0.56
	c0.88,0.38,1.57,0.9,2.08,1.56c0.51,0.67,0.87,1.48,1.07,2.43c0.2,0.96,0.31,2.01,0.31,3.17v11.51h-5.14V15.79
	c0-1.55-0.24-2.7-0.73-3.46c-0.48-0.76-1.34-1.14-2.57-1.14c-1.4,0-2.41,0.42-3.04,1.25c-0.63,0.83-0.94,2.2-0.94,4.11v9.81h-5.14
	V7.64H143.83z"/>
<path class="st0" d="M188.57,7.64v3.44h-3.76v9.27c0,0.87,0.14,1.45,0.43,1.74c0.29,0.29,0.87,0.44,1.74,0.44
	c0.29,0,0.57-0.01,0.83-0.04c0.26-0.02,0.52-0.06,0.76-0.11v3.98c-0.43,0.08-0.91,0.13-1.45,0.15c-0.53,0.02-1.05,0.04-1.56,0.04
	c-0.8,0-1.55-0.06-2.26-0.17c-0.71-0.1-1.34-0.32-1.89-0.63c-0.54-0.31-0.96-0.76-1.28-1.34c-0.32-0.58-0.47-1.34-0.47-2.28V11.08
	h-3.11V7.64h3.11V2.03h5.14v5.61H188.57z"/>
<path class="st0" d="M135.95,27.73c-0.2,0.96-0.64,1.87-1.32,2.7c-0.68,0.83-1.65,1.54-2.94,2.12c-1.27,0.58-2.99,0.87-5.14,0.87
	c-0.92,0-1.85-0.11-2.81-0.34c-0.95-0.23-1.82-0.59-2.61-1.07c-0.78-0.48-1.43-1.11-1.95-1.86c-0.52-0.76-0.82-1.68-0.89-2.74h5.11
	c0.24,0.97,0.71,1.63,1.41,2.01c0.7,0.37,1.51,0.56,2.43,0.56c1.45,0,2.5-0.43,3.16-1.29c0.67-0.87,0.99-1.97,0.96-3.3v-2.46h-0.07
	c-0.56,0.99-1.35,1.72-2.38,2.19c-1.03,0.47-2.1,0.71-3.24,0.71c-1.4,0-2.6-0.25-3.62-0.74c-1.01-0.49-1.85-1.17-2.5-2.03
	c-0.65-0.86-1.13-1.86-1.43-3.01c-0.3-1.14-0.45-2.36-0.45-3.64c0-1.21,0.18-2.37,0.53-3.49c0.35-1.13,0.86-2.12,1.54-2.97
	c0.68-0.85,1.52-1.54,2.52-2.05c1-0.51,2.15-0.76,3.46-0.76c1.23,0,2.31,0.23,3.24,0.69c0.93,0.46,1.71,1.23,2.34,2.31h0.07V7.64
	h4.89v17.53C136.26,25.91,136.16,26.77,135.95,27.73 M128.91,21.5c0.55-0.29,1.02-0.67,1.37-1.16c0.37-0.48,0.63-1.03,0.81-1.65
	c0.18-0.61,0.27-1.26,0.27-1.94c0-0.77-0.07-1.5-0.22-2.19c-0.14-0.68-0.38-1.3-0.72-1.83c-0.34-0.53-0.79-0.95-1.34-1.27
	c-0.56-0.31-1.26-0.47-2.11-0.47c-0.72,0-1.34,0.15-1.86,0.43c-0.52,0.29-0.95,0.68-1.3,1.18c-0.35,0.5-0.6,1.06-0.76,1.7
	c-0.16,0.64-0.24,1.31-0.24,2.01c0,0.67,0.07,1.34,0.2,2.01c0.13,0.66,0.37,1.27,0.69,1.8c0.33,0.53,0.75,0.96,1.28,1.3
	c0.53,0.34,1.2,0.51,1.99,0.51C127.71,21.94,128.36,21.79,128.91,21.5"/>
<path class="st0" d="M73.81,7.64v3.44h-3.77v9.27c0,0.87,0.15,1.45,0.43,1.74c0.29,0.29,0.87,0.44,1.74,0.44
	c0.29,0,0.57-0.01,0.83-0.04c0.27-0.02,0.52-0.06,0.76-0.11v3.98c-0.44,0.08-0.92,0.13-1.45,0.15c-0.54,0.02-1.05,0.04-1.56,0.04
	c-0.8,0-1.55-0.06-2.26-0.17c-0.71-0.1-1.34-0.32-1.88-0.63c-0.54-0.31-0.97-0.76-1.28-1.34c-0.32-0.58-0.47-1.34-0.47-2.28V11.08
	h-3.11V7.64h3.11V2.03h5.14v5.61H73.81z"/>
<path class="st0" d="M103.13,7.64v2.61h0.11c0.65-1.09,1.49-1.88,2.53-2.38c1.04-0.49,2.1-0.74,3.18-0.74
	c1.38,0,2.51,0.19,3.39,0.56c0.88,0.38,1.58,0.9,2.08,1.56c0.51,0.67,0.86,1.48,1.07,2.43c0.21,0.96,0.31,2.01,0.31,3.17v11.51
	h-5.14V15.79c0-1.55-0.24-2.7-0.72-3.46c-0.48-0.76-1.34-1.14-2.57-1.14c-1.4,0-2.41,0.42-3.04,1.25c-0.63,0.83-0.95,2.2-0.95,4.11
	v9.81h-5.14V7.64H103.13z"/>
<path class="st0" d="M81.16,7.64v3.48h0.07c0.24-0.58,0.57-1.12,0.98-1.61c0.41-0.49,0.88-0.92,1.41-1.27
	c0.53-0.35,1.1-0.62,1.71-0.81c0.6-0.19,1.23-0.29,1.88-0.29c0.34,0,0.71,0.06,1.12,0.18v4.78c-0.25-0.05-0.53-0.09-0.87-0.13
	c-0.34-0.04-0.67-0.05-0.98-0.05c-0.94,0-1.73,0.16-2.39,0.47c-0.65,0.31-1.18,0.74-1.58,1.29c-0.4,0.54-0.68,1.18-0.85,1.9
	c-0.17,0.73-0.25,1.51-0.25,2.35v8.43h-5.14V7.64H81.16z"/>
<path class="st0" d="M164.46,21.86c0.77,0.75,1.88,1.12,3.33,1.12c1.04,0,1.93-0.26,2.68-0.78c0.75-0.52,1.21-1.07,1.37-1.65h4.53
	c-0.72,2.24-1.84,3.85-3.33,4.82c-1.49,0.96-3.31,1.45-5.43,1.45c-1.47,0-2.8-0.24-3.98-0.7c-1.18-0.47-2.18-1.14-3.01-2.02
	c-0.82-0.86-1.45-1.9-1.9-3.11c-0.45-1.21-0.67-2.53-0.67-3.98c0-1.4,0.23-2.7,0.69-3.91c0.45-1.21,1.1-2.25,1.95-3.14
	c0.84-0.88,1.85-1.58,3.03-2.08c1.17-0.51,2.46-0.76,3.89-0.76c1.59,0,2.98,0.31,4.16,0.92c1.18,0.61,2.15,1.44,2.91,2.48
	c0.76,1.04,1.31,2.22,1.65,3.55c0.34,1.32,0.46,2.71,0.36,4.16h-13.5C163.27,19.91,163.69,21.12,164.46,21.86 M170.27,12.02
	c-0.61-0.67-1.54-1.01-2.8-1.01c-0.82,0-1.5,0.13-2.04,0.41c-0.54,0.28-0.98,0.62-1.3,1.03c-0.33,0.41-0.56,0.85-0.69,1.3
	c-0.13,0.46-0.21,0.87-0.23,1.24h8.35C171.32,13.68,170.89,12.69,170.27,12.02"/>
<g>
	<linearGradient id="SVGID_1_" gradientUnits="userSpaceOnUse" x1="33.0602" y1="7.6434" x2="21.7865" y2="24.0328">
		<stop  offset="0" style="stop-color:#E83143"/>
		<stop  offset="0.0928" style="stop-color:#E52C49"/>
		<stop  offset="0.2223" style="stop-color:#DE1F5C"/>
		<stop  offset="0.3725" style="stop-color:#D20A79"/>
		<stop  offset="0.4204" style="stop-color:#CD0284"/>
		<stop  offset="0.4351" style="stop-color:#C50287"/>
		<stop  offset="0.5482" style="stop-color:#8A069F"/>
		<stop  offset="0.6574" style="stop-color:#5909B3"/>
		<stop  offset="0.7598" style="stop-color:#330BC3"/>
		<stop  offset="0.854" style="stop-color:#170DCE"/>
		<stop  offset="0.937" style="stop-color:#070ED5"/>
		<stop  offset="1" style="stop-color:#010ED7"/>
	</linearGradient>
	<path class="st1" d="M31.02,6.45L18.95,24.89h0.03c4.73-0.01,7.75-3.91,8.21-4.55l8.97-13.89c0,0,0,0,0,0H31.02z"/>
	<linearGradient id="SVGID_2_" gradientUnits="userSpaceOnUse" x1="14.5959" y1="6.1144" x2="3.3337" y2="25.6211">
		<stop  offset="0" style="stop-color:#E83143"/>
		<stop  offset="0.0928" style="stop-color:#E52C49"/>
		<stop  offset="0.2223" style="stop-color:#DE1F5C"/>
		<stop  offset="0.3725" style="stop-color:#D20A79"/>
		<stop  offset="0.4204" style="stop-color:#CD0284"/>
		<stop  offset="0.4351" style="stop-color:#C50287"/>
		<stop  offset="0.5482" style="stop-color:#8A069F"/>
		<stop  offset="0.6574" style="stop-color:#5909B3"/>
		<stop  offset="0.7598" style="stop-color:#330BC3"/>
		<stop  offset="0.854" style="stop-color:#170DCE"/>
		<stop  offset="0.937" style="stop-color:#070ED5"/>
		<stop  offset="1" style="stop-color:#010ED7"/>
	</linearGradient>
	<path class="st2" d="M5.77,24.88l-5.3,0.01l9.14-13.97c0,0,2.85-4.47,8.06-4.48c0,0,0,0,0,0L5.77,24.88z"/>
	<linearGradient id="SVGID_3_" gradientUnits="userSpaceOnUse" x1="17.3034" y1="1.4249" x2="-1.1755" y2="33.4313">
		<stop  offset="0.1614" style="stop-color:#E83143"/>
		<stop  offset="0.2186" style="stop-color:#E52C49"/>
		<stop  offset="0.2983" style="stop-color:#DE1F5C"/>
		<stop  offset="0.3909" style="stop-color:#D20A79"/>
		<stop  offset="0.4204" style="stop-color:#CD0284"/>
		<stop  offset="0.4279" style="stop-color:#C50287"/>
		<stop  offset="0.4855" style="stop-color:#8A069F"/>
		<stop  offset="0.541" style="stop-color:#5909B3"/>
		<stop  offset="0.5932" style="stop-color:#330BC3"/>
		<stop  offset="0.6411" style="stop-color:#170DCE"/>
		<stop  offset="0.6834" style="stop-color:#070ED5"/>
		<stop  offset="0.7155" style="stop-color:#010ED7"/>
	</linearGradient>
	<path class="st3" d="M9.62,10.93L0.47,24.89l5.3-0.01L17.68,6.45c0,0,0,0,0,0C12.46,6.45,9.62,10.93,9.62,10.93z"/>
	<linearGradient id="SVGID_4_" gradientUnits="userSpaceOnUse" x1="25.0906" y1="3.6114" x2="6.6117" y2="35.6178">
		<stop  offset="0.1055" style="stop-color:#E83143"/>
		<stop  offset="0.1643" style="stop-color:#E52C49"/>
		<stop  offset="0.2461" style="stop-color:#DE1F5C"/>
		<stop  offset="0.3412" style="stop-color:#D20A79"/>
		<stop  offset="0.3715" style="stop-color:#CD0284"/>
		<stop  offset="0.3788" style="stop-color:#C50287"/>
		<stop  offset="0.4352" style="stop-color:#8A069F"/>
		<stop  offset="0.4896" style="stop-color:#5909B3"/>
		<stop  offset="0.5406" style="stop-color:#330BC3"/>
		<stop  offset="0.5875" style="stop-color:#170DCE"/>
		<stop  offset="0.6289" style="stop-color:#070ED5"/>
		<stop  offset="0.6603" style="stop-color:#010ED7"/>
	</linearGradient>
	<polygon class="st4" points="21.6,6.45 9.52,24.89 14.82,24.88 26.73,6.45 26.73,6.45 	"/>
</g>
</svg>
