<?xml version="1.0" encoding="utf-8"?>
<!-- Generator: Adobe Illustrator 24.0.1, SVG Export Plug-In . SVG Version: 6.00 Build 0)  -->
<svg version="1.0" id="Capa_1" xmlns="http://www.w3.org/2000/svg" xmlns:xlink="http://www.w3.org/1999/xlink" x="0px" y="0px"
	 viewBox="0 0 228 91" style="enable-background:new 0 0 228 91;" xml:space="preserve">
<style type="text/css">
	.st0{fill:#FFFFFF;}
	.st1{fill:url(#SVGID_1_);}
	.st2{fill:url(#SVGID_2_);}
	.st3{fill:url(#SVGID_3_);}
	.st4{fill:url(#SVGID_4_);}
</style>
<g>
	<path class="st0" d="M56.39,43.07c0.35,0.65,0.83,1.17,1.42,1.57c0.59,0.4,1.28,0.69,2.08,0.89c0.8,0.19,1.63,0.29,2.47,0.29
		c0.58,0,1.2-0.05,1.86-0.13c0.66-0.09,1.28-0.27,1.86-0.53c0.58-0.26,1.06-0.62,1.44-1.07c0.39-0.45,0.58-1.03,0.58-1.73
		c0-0.75-0.26-1.36-0.76-1.83c-0.51-0.46-1.18-0.86-2-1.17c-0.82-0.31-1.76-0.58-2.81-0.81c-1.04-0.23-2.1-0.5-3.17-0.78
		c-1.1-0.26-2.17-0.57-3.21-0.95c-1.05-0.37-1.98-0.86-2.8-1.45c-0.83-0.59-1.49-1.34-2-2.23c-0.51-0.9-0.76-1.98-0.76-3.25
		c0-1.42,0.32-2.66,0.97-3.71c0.65-1.05,1.49-1.93,2.53-2.62c1.05-0.7,2.23-1.22,3.54-1.56c1.33-0.33,2.64-0.5,3.96-0.5
		c1.54,0,3.01,0.16,4.43,0.49c1.41,0.32,2.67,0.85,3.77,1.57c1.1,0.73,1.97,1.66,2.62,2.78c0.65,1.13,0.97,2.49,0.97,4.1h-6.26
		c-0.06-0.83-0.24-1.52-0.56-2.06c-0.31-0.54-0.74-0.97-1.26-1.28c-0.52-0.31-1.12-0.53-1.79-0.66c-0.67-0.13-1.41-0.19-2.2-0.19
		c-0.53,0-1.05,0.05-1.57,0.15c-0.52,0.1-0.99,0.28-1.42,0.55c-0.43,0.26-0.78,0.58-1.05,0.97c-0.27,0.39-0.41,0.88-0.41,1.48
		c0,0.54,0.11,0.99,0.33,1.32c0.22,0.34,0.65,0.65,1.3,0.94c0.64,0.28,1.53,0.57,2.68,0.85c1.14,0.29,2.63,0.65,4.47,1.09
		c0.55,0.1,1.31,0.29,2.29,0.56c0.97,0.27,1.94,0.7,2.91,1.3c0.95,0.59,1.79,1.39,2.49,2.39c0.7,0.99,1.05,2.27,1.05,3.83
		c0,1.27-0.26,2.45-0.78,3.53c-0.52,1.09-1.3,2.03-2.33,2.82c-1.03,0.79-2.31,1.4-3.83,1.84c-1.53,0.44-3.3,0.66-5.3,0.66
		c-1.63,0-3.2-0.18-4.72-0.56c-1.52-0.37-2.87-0.97-4.03-1.77c-1.17-0.8-2.1-1.82-2.78-3.07c-0.69-1.24-1.02-2.72-0.99-4.43h6.26
		C55.85,41.64,56.03,42.43,56.39,43.07"/>
	<path class="st0" d="M109.47,20h6.21v4.83h-6.21V20z M115.68,49.44h-6.21V28.12h6.21V49.44z"/>
	<path class="st0" d="M173.92,28.12v2.97h0.13c0.79-1.24,1.81-2.14,3.07-2.71c1.25-0.56,2.53-0.84,3.85-0.84
		c1.66,0,3.03,0.22,4.1,0.63c1.06,0.43,1.9,1.02,2.51,1.77c0.61,0.76,1.05,1.68,1.29,2.77c0.24,1.1,0.37,2.29,0.37,3.61v13.11h-6.21
		V37.4c0-1.76-0.29-3.07-0.88-3.94c-0.58-0.86-1.62-1.3-3.11-1.3c-1.69,0-2.92,0.47-3.67,1.42c-0.76,0.95-1.14,2.5-1.14,4.68v11.17
		h-6.21V28.12H173.92z"/>
	<path class="st0" d="M228,28.12v3.92h-4.55V42.6c0,0.99,0.17,1.65,0.52,1.98c0.35,0.33,1.05,0.5,2.1,0.5
		c0.35,0,0.69-0.01,1.01-0.04c0.32-0.02,0.63-0.07,0.92-0.12v4.53c-0.52,0.09-1.1,0.14-1.75,0.17c-0.64,0.03-1.27,0.04-1.89,0.04
		c-0.96,0-1.87-0.06-2.73-0.19c-0.86-0.12-1.62-0.36-2.28-0.72c-0.65-0.35-1.17-0.86-1.54-1.52c-0.38-0.66-0.57-1.53-0.57-2.6V32.04
		h-3.76v-3.92h3.76v-6.39h6.21v6.39H228z"/>
	<path class="st0" d="M164.4,51.01c-0.25,1.1-0.78,2.13-1.59,3.07c-0.82,0.95-2,1.75-3.55,2.41c-1.54,0.66-3.61,0.99-6.21,0.99
		c-1.11,0-2.24-0.13-3.39-0.39c-1.15-0.26-2.2-0.67-3.15-1.22c-0.94-0.55-1.73-1.26-2.35-2.12c-0.63-0.87-0.99-1.91-1.08-3.12h6.17
		c0.29,1.1,0.85,1.86,1.7,2.29c0.85,0.42,1.82,0.63,2.93,0.63c1.75,0,3.02-0.49,3.82-1.47c0.81-0.99,1.19-2.25,1.17-3.76v-2.8h-0.09
		c-0.67,1.13-1.63,1.96-2.87,2.5c-1.24,0.53-2.54,0.8-3.92,0.8c-1.69,0-3.15-0.28-4.37-0.85c-1.23-0.56-2.24-1.33-3.02-2.31
		c-0.79-0.97-1.36-2.12-1.73-3.43c-0.36-1.3-0.55-2.68-0.55-4.14c0-1.38,0.21-2.7,0.64-3.98c0.42-1.29,1.04-2.41,1.86-3.38
		c0.82-0.97,1.83-1.76,3.05-2.33c1.21-0.58,2.6-0.86,4.18-0.86c1.49,0,2.79,0.26,3.91,0.78c1.12,0.52,2.07,1.4,2.83,2.63h0.09v-2.84
		h5.91v19.96C164.78,48.93,164.65,49.91,164.4,51.01 M155.89,43.91c0.67-0.33,1.23-0.77,1.66-1.32c0.44-0.54,0.77-1.18,0.98-1.88
		c0.22-0.7,0.33-1.43,0.33-2.21c0-0.88-0.09-1.7-0.27-2.49c-0.17-0.78-0.46-1.48-0.87-2.08c-0.41-0.6-0.95-1.08-1.62-1.45
		c-0.68-0.35-1.52-0.53-2.55-0.53c-0.87,0-1.62,0.17-2.25,0.49c-0.63,0.33-1.15,0.78-1.58,1.34c-0.42,0.57-0.73,1.21-0.91,1.94
		c-0.19,0.73-0.29,1.49-0.29,2.29c0,0.77,0.08,1.53,0.24,2.28c0.16,0.76,0.44,1.44,0.83,2.04c0.39,0.6,0.91,1.1,1.55,1.48
		c0.64,0.39,1.45,0.58,2.41,0.58C154.45,44.41,155.22,44.24,155.89,43.91"/>
	<path class="st0" d="M89.3,28.12v3.92h-4.55V42.6c0,0.99,0.18,1.65,0.52,1.98c0.35,0.33,1.05,0.5,2.1,0.5
		c0.35,0,0.68-0.01,1.01-0.04C88.7,45,89,44.96,89.3,44.9v4.53c-0.53,0.09-1.11,0.14-1.75,0.17c-0.65,0.03-1.27,0.04-1.88,0.04
		c-0.96,0-1.88-0.06-2.74-0.19c-0.86-0.12-1.62-0.36-2.27-0.72c-0.65-0.35-1.17-0.86-1.55-1.52c-0.38-0.66-0.57-1.53-0.57-2.6V32.04
		h-3.76v-3.92h3.76v-6.39h6.21v6.39H89.3z"/>
	<path class="st0" d="M124.74,28.12v2.97h0.13c0.79-1.24,1.8-2.14,3.06-2.71c1.25-0.56,2.54-0.84,3.85-0.84
		c1.67,0,3.03,0.22,4.09,0.63c1.06,0.43,1.91,1.02,2.52,1.77c0.61,0.76,1.04,1.68,1.29,2.77c0.25,1.1,0.38,2.29,0.38,3.61v13.11
		h-6.21V37.4c0-1.76-0.29-3.07-0.88-3.94c-0.58-0.86-1.62-1.3-3.11-1.3c-1.69,0-2.92,0.47-3.67,1.42c-0.76,0.95-1.14,2.5-1.14,4.68
		v11.17h-6.21V28.12H124.74z"/>
	<path class="st0" d="M98.18,28.12v3.96h0.09c0.29-0.66,0.68-1.27,1.18-1.84c0.5-0.56,1.07-1.04,1.7-1.44
		c0.64-0.4,1.33-0.71,2.06-0.93c0.72-0.22,1.48-0.33,2.27-0.33c0.41,0,0.86,0.06,1.36,0.2v5.45c-0.3-0.06-0.64-0.1-1.05-0.14
		c-0.41-0.04-0.8-0.06-1.18-0.06c-1.14,0-2.1,0.18-2.88,0.53c-0.79,0.36-1.42,0.84-1.9,1.47c-0.49,0.62-0.82,1.34-1.03,2.16
		c-0.2,0.83-0.3,1.72-0.3,2.68v9.6h-6.22V28.12H98.18z"/>
	<path class="st0" d="M198.86,44.33c0.93,0.86,2.28,1.28,4.03,1.28c1.25,0,2.33-0.29,3.24-0.89c0.9-0.59,1.46-1.22,1.66-1.88h5.47
		c-0.88,2.55-2.22,4.39-4.03,5.48c-1.8,1.1-4,1.65-6.56,1.65c-1.78,0-3.39-0.27-4.82-0.8c-1.43-0.54-2.64-1.3-3.63-2.3
		c-0.99-0.98-1.76-2.17-2.29-3.54c-0.55-1.37-0.81-2.88-0.81-4.53c0-1.59,0.27-3.08,0.84-4.45c0.55-1.37,1.33-2.56,2.36-3.57
		c1.01-1,2.24-1.8,3.66-2.37c1.41-0.58,2.98-0.86,4.7-0.86c1.93,0,3.6,0.35,5.03,1.05c1.42,0.7,2.6,1.64,3.52,2.82
		c0.92,1.18,1.58,2.53,1.99,4.04c0.41,1.5,0.55,3.08,0.44,4.74h-16.31C197.42,42.1,197.92,43.48,198.86,44.33 M205.88,33.11
		c-0.74-0.77-1.87-1.15-3.39-1.15c-0.99,0-1.81,0.15-2.47,0.47c-0.66,0.32-1.19,0.71-1.57,1.18c-0.39,0.47-0.67,0.97-0.83,1.48
		c-0.16,0.52-0.25,0.99-0.28,1.41h10.1C207.15,35.01,206.63,33.88,205.88,33.11"/>
	<g>
		<linearGradient id="SVGID_1_" gradientUnits="userSpaceOnUse" x1="39.8367" y1="27.9268" x2="26.6903" y2="47.0387">
			<stop  offset="0" style="stop-color:#E83143"/>
			<stop  offset="0.0928" style="stop-color:#E52C49"/>
			<stop  offset="0.2223" style="stop-color:#DE1F5C"/>
			<stop  offset="0.3725" style="stop-color:#D20A79"/>
			<stop  offset="0.4204" style="stop-color:#CD0284"/>
			<stop  offset="0.4351" style="stop-color:#C50287"/>
			<stop  offset="0.5482" style="stop-color:#8A069F"/>
			<stop  offset="0.6574" style="stop-color:#5909B3"/>
			<stop  offset="0.7598" style="stop-color:#330BC3"/>
			<stop  offset="0.854" style="stop-color:#170DCE"/>
			<stop  offset="0.937" style="stop-color:#070ED5"/>
			<stop  offset="1" style="stop-color:#010ED7"/>
		</linearGradient>
		<path class="st1" d="M37.58,26.77l-14.59,21h0.03c5.72-0.01,9.37-4.46,9.92-5.18l10.85-15.82c0,0,0,0-0.01,0H37.58z"/>
		<linearGradient id="SVGID_2_" gradientUnits="userSpaceOnUse" x1="17.4806" y1="26.1546" x2="4.3797" y2="48.846">
			<stop  offset="0" style="stop-color:#E83143"/>
			<stop  offset="0.0928" style="stop-color:#E52C49"/>
			<stop  offset="0.2223" style="stop-color:#DE1F5C"/>
			<stop  offset="0.3725" style="stop-color:#D20A79"/>
			<stop  offset="0.4204" style="stop-color:#CD0284"/>
			<stop  offset="0.4351" style="stop-color:#C50287"/>
			<stop  offset="0.5482" style="stop-color:#8A069F"/>
			<stop  offset="0.6574" style="stop-color:#5909B3"/>
			<stop  offset="0.7598" style="stop-color:#330BC3"/>
			<stop  offset="0.854" style="stop-color:#170DCE"/>
			<stop  offset="0.937" style="stop-color:#070ED5"/>
			<stop  offset="1" style="stop-color:#010ED7"/>
		</linearGradient>
		<path class="st2" d="M7.07,47.76l-6.41,0.01l11.05-15.91c0,0,3.44-5.09,9.74-5.1c0,0,0,0,0,0L7.07,47.76z"/>
		<linearGradient id="SVGID_3_" gradientUnits="userSpaceOnUse" x1="20.6301" y1="20.6994" x2="-0.8657" y2="57.9313">
			<stop  offset="0.1614" style="stop-color:#E83143"/>
			<stop  offset="0.2186" style="stop-color:#E52C49"/>
			<stop  offset="0.2983" style="stop-color:#DE1F5C"/>
			<stop  offset="0.3909" style="stop-color:#D20A79"/>
			<stop  offset="0.4204" style="stop-color:#CD0284"/>
			<stop  offset="0.4279" style="stop-color:#C50287"/>
			<stop  offset="0.4855" style="stop-color:#8A069F"/>
			<stop  offset="0.541" style="stop-color:#5909B3"/>
			<stop  offset="0.5932" style="stop-color:#330BC3"/>
			<stop  offset="0.6411" style="stop-color:#170DCE"/>
			<stop  offset="0.6834" style="stop-color:#070ED5"/>
			<stop  offset="0.7155" style="stop-color:#010ED7"/>
		</linearGradient>
		<path class="st3" d="M11.71,31.87L0.66,47.77l6.41-0.01l14.39-20.99c0,0,0,0,0,0C15.15,26.77,11.71,31.87,11.71,31.87z"/>
		<linearGradient id="SVGID_4_" gradientUnits="userSpaceOnUse" x1="30.0989" y1="23.243" x2="8.6031" y2="60.4748">
			<stop  offset="0.1055" style="stop-color:#E83143"/>
			<stop  offset="0.1643" style="stop-color:#E52C49"/>
			<stop  offset="0.2461" style="stop-color:#DE1F5C"/>
			<stop  offset="0.3412" style="stop-color:#D20A79"/>
			<stop  offset="0.3715" style="stop-color:#CD0284"/>
			<stop  offset="0.3788" style="stop-color:#C50287"/>
			<stop  offset="0.4352" style="stop-color:#8A069F"/>
			<stop  offset="0.4896" style="stop-color:#5909B3"/>
			<stop  offset="0.5406" style="stop-color:#330BC3"/>
			<stop  offset="0.5875" style="stop-color:#170DCE"/>
			<stop  offset="0.6289" style="stop-color:#070ED5"/>
			<stop  offset="0.6603" style="stop-color:#010ED7"/>
		</linearGradient>
		<polygon class="st4" points="26.19,26.77 11.6,47.77 18,47.76 32.4,26.77 32.39,26.77 		"/>
	</g>
	<g>
		<path class="st0" d="M176.51,60.14h-3.53v1.27h3.24v1.07h-3.24v1.57h3.69v1.07h-5.05v-6.04h4.89V60.14z"/>
		<path class="st0" d="M182.11,65.12h-1.6l-0.85-1.35l-0.85,1.35h-1.57l1.68-2.28l-1.61-2.2h1.58l0.83,1.3l0.82-1.3h1.53l-1.62,2.2
			L182.11,65.12z"/>
		<path class="st0" d="M184.07,61.29h0.02c0.24-0.35,0.6-0.77,1.47-0.77c1.08,0,2.05,0.76,2.05,2.31c0,1.23-0.61,2.41-2.08,2.41
			c-0.91,0-1.23-0.45-1.39-0.69h-0.02v2.31h-1.3v-6.22h1.24V61.29z M185.21,64.27c0.83,0,1.07-0.82,1.07-1.36
			c0-0.71-0.28-1.37-1.1-1.37c-0.89,0-1.1,0.72-1.1,1.44C184.07,63.64,184.38,64.27,185.21,64.27z"/>
		<path class="st0" d="M192.75,63.8c-0.34,1.08-1.33,1.43-2.17,1.43c-1.39,0-2.46-0.61-2.46-2.45c0-0.54,0.2-2.26,2.36-2.26
			c0.97,0,2.32,0.42,2.32,2.47v0.21h-3.38c0.04,0.34,0.11,1.09,1.16,1.09c0.36,0,0.73-0.17,0.83-0.49H192.75z M191.47,62.43
			c-0.07-0.72-0.58-0.94-1-0.94c-0.61,0-0.94,0.35-1.01,0.94H191.47z"/>
		<path class="st0" d="M193.66,60.64h1.24v0.77h0.02c0.27-0.45,0.57-0.89,1.35-0.89c0.08,0,0.17,0.01,0.25,0.02v1.2
			c-0.11-0.02-0.25-0.02-0.37-0.02c-1.01,0-1.2,0.57-1.2,1.07v2.33h-1.3V60.64z"/>
		<path class="st0" d="M198.47,60.11h-1.3v-1.09h1.3V60.11z M198.47,60.64v4.48h-1.3v-4.48H198.47z"/>
		<path class="st0" d="M203.95,63.8c-0.34,1.08-1.33,1.43-2.17,1.43c-1.39,0-2.46-0.61-2.46-2.45c0-0.54,0.2-2.26,2.36-2.26
			c0.97,0,2.32,0.42,2.32,2.47v0.21h-3.38c0.04,0.34,0.11,1.09,1.16,1.09c0.36,0,0.73-0.17,0.83-0.49H203.95z M202.67,62.43
			c-0.07-0.72-0.58-0.94-1-0.94c-0.61,0-0.94,0.35-1.01,0.94H202.67z"/>
		<path class="st0" d="M209.33,65.12h-1.3V62.4c0-0.33-0.02-0.88-0.84-0.88c-0.57,0-1.02,0.35-1.02,1.04v2.57h-1.3v-4.48h1.24v0.66
			h0.02c0.18-0.27,0.55-0.77,1.48-0.77c0.96,0,1.71,0.51,1.71,1.5V65.12z"/>
		<path class="st0" d="M211.99,60.64h0.81v0.84h-0.81v2.43c0,0.26,0.01,0.36,0.54,0.36c0.08,0,0.18-0.01,0.27-0.02v0.89
			c-0.2,0.01-0.41,0.02-0.61,0.02h-0.17c-1.12,0-1.32-0.39-1.32-0.97v-2.72h-0.67v-0.84h0.67v-1.21h1.3V60.64z"/>
		<path class="st0" d="M214.96,60.11h-1.3v-1.09h1.3V60.11z M214.96,60.64v4.48h-1.3v-4.48H214.96z"/>
		<path class="st0" d="M220.2,64.24c0,0.53,0.13,0.65,0.29,0.7v0.18h-1.4c-0.07-0.21-0.09-0.28-0.12-0.53
			c-0.3,0.28-0.71,0.65-1.59,0.65c-0.74,0-1.5-0.38-1.5-1.3c0-0.88,0.61-1.32,1.44-1.43l1.17-0.16c0.2-0.03,0.45-0.1,0.45-0.35
			c0-0.5-0.52-0.52-0.85-0.52c-0.65,0-0.76,0.36-0.8,0.62h-1.25c0.15-1.37,1.2-1.57,2.21-1.57c0.7,0,1.96,0.19,1.96,1.3V64.24z
			 M218.93,62.94c-0.13,0.09-0.34,0.17-0.88,0.24c-0.48,0.08-0.88,0.19-0.88,0.67c0,0.41,0.35,0.54,0.6,0.54
			c0.57,0,1.16-0.34,1.16-0.88V62.94z"/>
		<path class="st0" d="M222.69,65.12h-1.3v-6.04h1.3V65.12z"/>
		<path class="st0" d="M172.56,72.84h-1.46l2.37-6.04h1.6l2.34,6.04h-1.51l-0.43-1.25h-2.46L172.56,72.84z M173.4,70.55h1.7
			l-0.82-2.39h-0.02L173.4,70.55z"/>
		<path class="st0" d="M182.54,68.36v4.24c0,0.77-0.06,2.06-2.49,2.06c-1.02,0-2.09-0.4-2.15-1.35h1.41
			c0.06,0.23,0.16,0.45,0.91,0.45c0.7,0,1.03-0.3,1.03-1.03v-0.54l-0.02-0.02c-0.21,0.35-0.54,0.67-1.32,0.67
			c-1.19,0-2.12-0.75-2.12-2.31c0-1.55,0.96-2.31,2.05-2.31c0.92,0,1.29,0.49,1.45,0.78h0.02v-0.66H182.54z M180.15,71.87
			c0.88,0,1.1-0.68,1.1-1.3c0-0.72-0.39-1.31-1.11-1.31c-0.48,0-1.02,0.32-1.02,1.36C179.13,71.2,179.39,71.87,180.15,71.87z"/>
		<path class="st0" d="M188.02,71.52c-0.34,1.08-1.33,1.43-2.17,1.43c-1.39,0-2.46-0.61-2.46-2.45c0-0.54,0.2-2.26,2.36-2.26
			c0.97,0,2.32,0.42,2.32,2.47v0.21h-3.38c0.04,0.34,0.11,1.09,1.16,1.09c0.36,0,0.73-0.17,0.83-0.49H188.02z M186.74,70.15
			c-0.07-0.72-0.58-0.94-1-0.94c-0.61,0-0.94,0.35-1.01,0.94H186.74z"/>
		<path class="st0" d="M193.39,72.84h-1.3v-2.72c0-0.33-0.02-0.88-0.84-0.88c-0.57,0-1.02,0.35-1.02,1.04v2.57h-1.3v-4.48h1.24v0.66
			h0.02c0.18-0.27,0.55-0.77,1.48-0.77c0.96,0,1.71,0.51,1.71,1.5V72.84z"/>
		<path class="st0" d="M198.84,71.2c-0.05,0.46-0.44,1.75-2.25,1.75c-1.85,0-2.28-1.29-2.28-2.23c0-1.45,0.7-2.48,2.36-2.48
			c0.78,0,2.06,0.32,2.18,1.72h-1.32c-0.06-0.29-0.24-0.72-0.8-0.72h-0.06c-0.82,0-1.03,0.74-1.03,1.3c0,0.49,0.02,1.46,1,1.46
			c0.66,0,0.88-0.57,0.88-0.78H198.84z"/>
		<path class="st0" d="M202.36,72.76c-0.61,1.66-0.78,1.88-1.91,1.88c-0.18,0-0.4-0.01-0.58-0.02v-0.94
			c0.06,0.01,0.14,0.02,0.25,0.02c0.47,0,0.73-0.06,0.85-0.67l-1.82-4.66h1.45l1.06,3.3h0.02l1.01-3.3h1.37L202.36,72.76z"/>
	</g>
</g>
</svg>
