<?xml version="1.0" encoding="UTF-8" standalone="no"?><!DOCTYPE svg PUBLIC "-//W3C//DTD SVG 1.1//EN" "http://www.w3.org/Graphics/SVG/1.1/DTD/svg11.dtd"><svg width="100%" height="100%" viewBox="0 0 48 51" version="1.1" xmlns="http://www.w3.org/2000/svg" xmlns:xlink="http://www.w3.org/1999/xlink" xml:space="preserve" xmlns:serif="http://www.serif.com/" style="fill-rule:evenodd;clip-rule:evenodd;stroke-linejoin:round;stroke-miterlimit:1.41421;"><path id="Shape-7" serif:id="Shape 7" d="M13,4l22,0l0,-4l4,0l0,4l9,0l0,47l-48,0l0,-47l9,0l0,-4l4,0l0,4Zm31,43l0,-28l-40,0l0,28l40,0Zm-18.89,-19.889l-1.11,1.481l-1.004,-1.481c-1.753,-1.739 -4.591,-1.739 -6.345,0c-1.751,1.74 -1.751,4.562 0,6.297l1.059,1.054l6.29,6.13l6.396,-6.13l1.061,-1.054c1.747,-1.739 1.747,-4.557 0,-6.297c-1.753,-1.739 -4.596,-1.739 -6.347,0Zm18.89,-12.111l0,-7l-5,0l0,4l-4,0l0,-4l-22,0l0,4l-4,0l0,-4l-5,0l0,7l40,0Z" style="fill:#f37b7b;"/></svg>