<?xml version="1.0" encoding="UTF-8" standalone="no"?><!DOCTYPE svg PUBLIC "-//W3C//DTD SVG 1.1//EN" "http://www.w3.org/Graphics/SVG/1.1/DTD/svg11.dtd"><svg width="100%" height="100%" viewBox="0 0 46 46" version="1.1" xmlns="http://www.w3.org/2000/svg" xmlns:xlink="http://www.w3.org/1999/xlink" xml:space="preserve" xmlns:serif="http://www.serif.com/" style="fill-rule:evenodd;clip-rule:evenodd;stroke-linejoin:round;stroke-miterlimit:1.41421;"><path id="Shape-13" serif:id="Shape 13" d="M26.075,0.002c0.528,0.009 0.988,0.17 1.37,0.448c0.39,0.284 0.688,0.688 0.842,1.17l1.202,3.768c0.006,0.019 0.014,0.035 0.026,0.047c0.007,0.008 0.025,0.019 0.048,0.027l0.053,0.025l1.633,0.676c0.024,0.009 0.043,0.013 0.054,0.013c0.009,-0.002 0.026,-0.007 0.051,-0.02l3.512,-1.812c0.451,-0.233 0.947,-0.307 1.422,-0.233c0.476,0.074 0.925,0.295 1.283,0.653l0.004,0l3.661,3.662c0.358,0.357 0.58,0.807 0.654,1.286c0.075,0.477 0,0.973 -0.234,1.423l-1.812,3.513c-0.013,0.023 -0.018,0.039 -0.018,0.049c-0.002,0.015 0.004,0.035 0.015,0.06l0.698,1.687c0.008,0.019 0.017,0.033 0.029,0.043c0.011,0.01 0.026,0.019 0.044,0.025l3.764,1.202c0.485,0.155 0.889,0.451 1.173,0.84l0.002,-0.002c0.285,0.39 0.447,0.866 0.447,1.373l0,5.167c0,0.504 -0.162,0.979 -0.447,1.37l0,0.005c-0.282,0.385 -0.686,0.682 -1.175,0.837l-3.764,1.202c-0.018,0.005 -0.033,0.014 -0.044,0.026c-0.009,0.007 -0.019,0.024 -0.029,0.047l-0.698,1.682c-0.011,0.024 -0.017,0.045 -0.015,0.059c0,0.01 0.005,0.027 0.018,0.049l1.812,3.515c0.234,0.45 0.309,0.944 0.234,1.421c-0.074,0.479 -0.296,0.929 -0.654,1.287l-3.661,3.661c-0.357,0.357 -0.808,0.579 -1.287,0.655c-0.476,0.073 -0.971,-0.002 -1.422,-0.234l-3.512,-1.813c-0.024,-0.011 -0.041,-0.019 -0.051,-0.019c-0.014,0 -0.035,0.005 -0.059,0.015l-1.685,0.698c-0.019,0.009 -0.036,0.017 -0.045,0.029c-0.011,0.011 -0.019,0.028 -0.025,0.045l-1.204,3.768c-0.153,0.482 -0.45,0.886 -0.841,1.17c-0.391,0.285 -0.864,0.448 -1.369,0.448l-5.167,0c-0.503,0 -0.977,-0.163 -1.368,-0.448c-0.391,-0.284 -0.688,-0.688 -0.843,-1.17l-1.202,-3.768c-0.005,-0.019 -0.015,-0.034 -0.024,-0.045c-0.009,-0.009 -0.025,-0.019 -0.05,-0.029l-1.681,-0.698c-0.025,-0.01 -0.045,-0.015 -0.06,-0.015c-0.008,0 -0.026,0.008 -0.049,0.019l-3.513,1.813c-0.452,0.232 -0.946,0.307 -1.422,0.234c-0.479,-0.076 -0.93,-0.298 -1.288,-0.655l-3.661,-3.661l-0.075,-0.084c-0.314,-0.345 -0.51,-0.763 -0.578,-1.203c-0.074,-0.475 0,-0.971 0.233,-1.421l1.814,-3.515c0.011,-0.022 0.017,-0.039 0.018,-0.049c0,-0.014 -0.005,-0.035 -0.014,-0.059l-0.699,-1.686c-0.008,-0.02 -0.018,-0.035 -0.028,-0.045c-0.012,-0.01 -0.027,-0.019 -0.047,-0.024l-3.763,-1.202c-0.488,-0.157 -0.892,-0.452 -1.175,-0.837l-0.059,-0.09c-0.248,-0.375 -0.389,-0.817 -0.389,-1.285l0,-5.167c0,-0.504 0.163,-0.978 0.448,-1.368l0,-0.006c0.283,-0.384 0.687,-0.681 1.175,-0.837l3.76,-1.201c0.023,-0.008 0.04,-0.017 0.05,-0.027c0.01,-0.009 0.02,-0.025 0.028,-0.044l0.699,-1.685c0.009,-0.025 0.014,-0.045 0.014,-0.06c-0.001,-0.01 -0.007,-0.026 -0.018,-0.049l-1.814,-3.513c-0.233,-0.45 -0.307,-0.946 -0.233,-1.423c0.074,-0.474 0.295,-0.925 0.655,-1.284l-0.002,-0.002l3.661,-3.662c0.358,-0.356 0.809,-0.578 1.288,-0.653c0.474,-0.074 0.97,0 1.422,0.233l3.513,1.812c0.023,0.013 0.041,0.018 0.049,0.018c0.015,0.002 0.034,-0.002 0.056,-0.011l1.71,-0.711l0.025,-0.019c0.009,-0.01 0.019,-0.027 0.026,-0.049c0.424,-1.225 0.814,-2.523 1.201,-3.764c0.154,-0.482 0.452,-0.886 0.842,-1.17c0.381,-0.278 0.841,-0.439 1.368,-0.448l5.167,0Zm0,42.81l0.079,-0.018c0.016,-0.011 0.032,-0.034 0.042,-0.067l1.201,-3.76c0.107,-0.337 0.275,-0.63 0.499,-0.872c0.224,-0.244 0.502,-0.437 0.826,-0.57l1.687,-0.7c0.321,-0.131 0.65,-0.191 0.981,-0.176c0.335,0.012 0.662,0.099 0.97,0.259l3.513,1.813c0.029,0.015 0.057,0.02 0.079,0.017c0.018,-0.002 0.041,-0.017 0.065,-0.042l3.663,-3.661c0.024,-0.026 0.039,-0.049 0.041,-0.066c0.004,-0.021 -0.002,-0.05 -0.018,-0.078l-1.812,-3.514c-0.159,-0.308 -0.247,-0.636 -0.261,-0.97c-0.013,-0.33 0.047,-0.66 0.179,-0.98l0.699,-1.691c0.132,-0.321 0.325,-0.598 0.57,-0.822c0.242,-0.224 0.536,-0.393 0.873,-0.5l3.763,-1.201c0.026,-0.008 0.049,-0.025 0.063,-0.045c0.013,-0.015 0.018,-0.041 0.018,-0.076l0,-5.167c0,-0.033 -0.005,-0.059 -0.018,-0.074l0,-0.004c-0.012,-0.018 -0.034,-0.032 -0.063,-0.042l-3.763,-1.202c-0.337,-0.107 -0.629,-0.275 -0.873,-0.498c-0.243,-0.225 -0.435,-0.503 -0.57,-0.827l-0.699,-1.687c-0.132,-0.32 -0.192,-0.65 -0.179,-0.981c0.014,-0.335 0.102,-0.662 0.261,-0.968l1.812,-3.514c0.016,-0.03 0.022,-0.058 0.018,-0.08c-0.002,-0.017 -0.017,-0.04 -0.041,-0.064l-3.663,-3.663l0.003,-0.001c-0.024,-0.024 -0.048,-0.038 -0.068,-0.041c-0.022,-0.003 -0.05,0.003 -0.079,0.019l-3.513,1.812c-0.308,0.159 -0.634,0.245 -0.97,0.26c-0.333,0.013 -0.665,-0.045 -0.984,-0.18l-1.687,-0.696c-0.319,-0.133 -0.597,-0.326 -0.822,-0.571c-0.223,-0.243 -0.393,-0.536 -0.5,-0.871l-1.201,-3.761c-0.01,-0.032 -0.026,-0.057 -0.042,-0.068c-0.015,-0.01 -0.043,-0.018 -0.079,-0.018l-5.167,0c-0.036,0 -0.063,0.008 -0.078,0.018c-0.016,0.011 -0.032,0.036 -0.042,0.068l-1.2,3.765c-0.108,0.331 -0.276,0.623 -0.5,0.867c-0.207,0.225 -0.46,0.406 -0.755,0.539l-0.067,0.031l-1.692,0.699c-0.318,0.132 -0.649,0.191 -0.979,0.178c-0.336,-0.015 -0.663,-0.101 -0.97,-0.26l-3.514,-1.812c-0.03,-0.016 -0.058,-0.022 -0.079,-0.019c-0.017,0.003 -0.041,0.017 -0.065,0.042l-3.662,3.663l-0.006,0c-0.021,0.021 -0.034,0.044 -0.037,0.064c-0.002,0.022 0.003,0.05 0.019,0.08l1.813,3.514c0.158,0.306 0.245,0.633 0.26,0.968c0.012,0.331 -0.047,0.661 -0.179,0.981l-0.697,1.685c-0.136,0.326 -0.328,0.604 -0.571,0.827c-0.245,0.225 -0.536,0.394 -0.868,0.5l-3.768,1.202c-0.027,0.008 -0.049,0.024 -0.065,0.046c-0.012,0.013 -0.017,0.039 -0.017,0.074l0,5.167c0,0.028 0.004,0.049 0.01,0.064l0.007,0.01c0.016,0.022 0.038,0.038 0.065,0.047l3.763,1.201c0.335,0.107 0.63,0.276 0.873,0.499c0.243,0.224 0.435,0.502 0.571,0.826l0.697,1.688c0.132,0.32 0.191,0.65 0.179,0.98c-0.015,0.334 -0.102,0.662 -0.26,0.97l-1.813,3.514c-0.016,0.028 -0.021,0.057 -0.019,0.079c0.003,0.013 0.009,0.027 0.019,0.042l3.686,3.684c0.024,0.025 0.048,0.04 0.065,0.042c0.021,0.003 0.049,-0.002 0.079,-0.017l3.514,-1.813c0.308,-0.16 0.634,-0.247 0.97,-0.259c0.33,-0.015 0.661,0.045 0.979,0.176l1.692,0.7c0.319,0.131 0.596,0.324 0.822,0.57c0.223,0.242 0.391,0.535 0.498,0.872l1.202,3.76c0.01,0.033 0.025,0.056 0.042,0.067c0.015,0.012 0.042,0.018 0.078,0.018l5.167,0Zm8.917,-25.059c-0.632,-1.525 -1.555,-2.897 -2.7,-4.041l-0.004,-0.004c-1.144,-1.144 -2.515,-2.067 -4.04,-2.698c-1.47,-0.61 -3.077,-0.946 -4.756,-0.946c-1.678,0 -3.286,0.336 -4.756,0.946c-1.525,0.631 -2.895,1.554 -4.041,2.698l-0.004,0.004c-1.144,1.144 -2.067,2.516 -2.698,4.041c-0.609,1.47 -0.945,3.077 -0.945,4.755c0,1.681 0.336,3.286 0.945,4.756c0.633,1.531 1.557,2.903 2.698,4.045l0.064,0.058c1.133,1.116 2.482,2.02 3.981,2.641c1.47,0.609 3.078,0.945 4.756,0.945c1.679,0 3.286,-0.336 4.756,-0.946c1.53,-0.633 2.902,-1.557 4.044,-2.698l0.059,-0.064c1.117,-1.132 2.02,-2.482 2.641,-3.981c0.608,-1.47 0.944,-3.077 0.944,-4.756c0,-1.678 -0.336,-3.285 -0.944,-4.755Zm-2.57,8.449c-0.483,1.163 -1.184,2.212 -2.051,3.091l-0.046,0.049c-0.886,0.886 -1.952,1.604 -3.14,2.096c-1.142,0.473 -2.389,0.734 -3.693,0.734c-1.303,0 -2.552,-0.261 -3.693,-0.733c-1.165,-0.483 -2.212,-1.185 -3.092,-2.052l-0.049,-0.045c-0.887,-0.887 -1.604,-1.952 -2.095,-3.14c-0.473,-1.142 -0.734,-2.389 -0.734,-3.694c0,-1.303 0.261,-2.551 0.734,-3.692c0.49,-1.185 1.206,-2.25 2.095,-3.138l0.003,-0.003c0.89,-0.889 1.953,-1.605 3.138,-2.095c1.141,-0.473 2.39,-0.735 3.693,-0.735c1.304,0 2.551,0.262 3.693,0.735c1.184,0.49 2.249,1.206 3.137,2.095l0.003,0.003c0.889,0.888 1.607,1.953 2.097,3.138c0.472,1.141 0.733,2.389 0.733,3.692c0,1.304 -0.261,2.552 -0.733,3.694Z" style="fill:#001b85;"/></svg>