<?xml version="1.0" encoding="UTF-8" standalone="no"?><!DOCTYPE svg PUBLIC "-//W3C//DTD SVG 1.1//EN" "http://www.w3.org/Graphics/SVG/1.1/DTD/svg11.dtd"><svg width="100%" height="100%" viewBox="0 0 45 36" version="1.1" xmlns="http://www.w3.org/2000/svg" xmlns:xlink="http://www.w3.org/1999/xlink" xml:space="preserve" xmlns:serif="http://www.serif.com/" style="fill-rule:evenodd;clip-rule:evenodd;stroke-linejoin:round;stroke-miterlimit:1.41421;"><path id="Shape-15" serif:id="Shape 15" d="M28.355,29.448l-16.747,0l-8.332,6.327c-0.442,0.336 -1.071,0.249 -1.407,-0.192c-0.176,-0.235 -0.235,-0.521 -0.186,-0.789l0.996,-5.387c-0.674,-0.11 -1.28,-0.433 -1.742,-0.897l-0.06,-0.064c-0.543,-0.574 -0.877,-1.347 -0.877,-2.192l0,-17.735c0,-0.876 0.359,-1.675 0.938,-2.256l-0.001,-0.001c0.578,-0.578 1.375,-0.938 2.255,-0.938l10.249,0l0,-1.135c0,-0.846 0.334,-1.618 0.877,-2.193l0.06,-0.065c0.578,-0.578 1.376,-0.936 2.255,-0.936l25.163,0c0.875,0 1.67,0.358 2.25,0.935l0.006,0.005c0.577,0.581 0.937,1.378 0.937,2.254l0,17.734c0,0.88 -0.36,1.68 -0.937,2.258l-0.003,-0.003c-0.464,0.464 -1.068,0.788 -1.74,0.898l0.998,5.388c0.047,0.268 -0.012,0.555 -0.19,0.788c-0.333,0.442 -0.963,0.528 -1.405,0.194l-8.332,-6.329l-1.834,0l0,1.137c0,0.88 -0.358,1.678 -0.936,2.256l-0.065,0.06c-0.573,0.544 -1.345,0.878 -2.19,0.878l0,0Zm-9.757,-10.006l-12.648,0c-0.556,0 -1.008,0.452 -1.008,1.009c0,0.557 0.452,1.009 1.008,1.009l12.648,0c0.556,0 1.008,-0.452 1.008,-1.009c0,-0.557 -0.452,-1.009 -1.008,-1.009l0,0Zm6.996,-6.535l-19.642,0c-0.557,0 -1.008,0.453 -1.008,1.01c0,0.557 0.451,1.009 1.008,1.009l19.642,0c0.557,0 1.008,-0.452 1.008,-1.009c0,-0.557 -0.451,-1.01 -1.008,-1.01l0,0Zm13.313,2.436c0.557,0 1.008,0.452 1.008,1.009c0,0.557 -0.451,1.01 -1.008,1.01l-7.361,0l0,5.738l2.165,0c0.265,0 0.505,0.102 0.684,0.268l6.463,4.907l-0.739,-3.986c-0.1,-0.545 0.261,-1.07 0.807,-1.17c0.062,-0.011 0.121,-0.017 0.181,-0.017l0,-0.002l0.689,0c0.326,0 0.62,-0.132 0.831,-0.343l0,-0.003c0.212,-0.213 0.345,-0.507 0.345,-0.831l0,-17.734c0,-0.326 -0.13,-0.62 -0.342,-0.83l-0.003,-0.005c-0.211,-0.211 -0.505,-0.342 -0.831,-0.342l-25.163,0c-0.323,0 -0.617,0.133 -0.83,0.347l-0.039,0.035c-0.19,0.208 -0.307,0.487 -0.307,0.795l0,1.135l12.898,0c0.875,0 1.672,0.358 2.251,0.938l0.006,0.005c0.577,0.581 0.934,1.377 0.934,2.252l0,0.29l7.361,0c0.557,0 1.008,0.452 1.008,1.009c0,0.557 -0.451,1.01 -1.008,1.01l-7.361,0l0,4.515l7.361,0Zm-27.63,12.088l17.078,0c0.307,0 0.586,-0.117 0.794,-0.308l0.037,-0.039c0.212,-0.213 0.344,-0.508 0.344,-0.83l0,-2.145l0,-15.59c0,-0.326 -0.131,-0.62 -0.342,-0.831l-0.002,-0.004c-0.211,-0.211 -0.505,-0.341 -0.831,-0.341l-13.905,0l-11.258,0c-0.323,0 -0.618,0.133 -0.831,0.345l-0.004,0c-0.21,0.211 -0.342,0.505 -0.342,0.831l0,17.735c0,0.306 0.117,0.586 0.308,0.793l0.038,0.037c0.213,0.214 0.508,0.347 0.831,0.347l0.688,0l0,0.002c0.06,0 0.12,0.006 0.182,0.017c0.546,0.1 0.906,0.624 0.807,1.17l-0.739,3.985l6.463,-4.907c0.179,-0.167 0.419,-0.267 0.684,-0.267Z" style="fill:#001b85;"/></svg>