<?xml version="1.0" encoding="UTF-8" standalone="no"?><!DOCTYPE svg PUBLIC "-//W3C//DTD SVG 1.1//EN" "http://www.w3.org/Graphics/SVG/1.1/DTD/svg11.dtd"><svg width="100%" height="100%" viewBox="0 0 83 90" version="1.1" xmlns="http://www.w3.org/2000/svg" xmlns:xlink="http://www.w3.org/1999/xlink" xml:space="preserve" xmlns:serif="http://www.serif.com/" style="fill-rule:evenodd;clip-rule:evenodd;stroke-linejoin:round;stroke-miterlimit:1.41421;"><path id="Shape-8" serif:id="Shape 8" d="M81.06,90.004l-28.432,0c-1.067,0 -1.93,-0.897 -1.93,-2.004c0,-4.631 1.805,-8.822 4.729,-11.855c1.346,-1.396 2.927,-2.549 4.678,-3.384c-0.28,-0.237 -0.552,-0.492 -0.81,-0.759c-1.929,-2.005 -3.125,-4.772 -3.125,-7.829c0,-3.059 1.196,-5.827 3.125,-7.833c1.931,-2.003 4.599,-3.243 7.543,-3.243c2.946,0 5.613,1.24 7.543,3.243c1.931,2.006 3.126,4.774 3.126,7.833c0,3.051 -1.195,5.817 -3.126,7.823l0,0.006c-0.255,0.267 -0.525,0.519 -0.804,0.756c1.754,0.836 3.338,1.988 4.685,3.387c2.923,3.033 4.731,7.224 4.731,11.855c0,1.098 -0.85,1.99 -1.933,2.004Zm-14.214,-14.756l-0.008,0c-3.405,0.007 -6.463,1.434 -8.681,3.733c-1.789,1.86 -3.028,4.293 -3.444,7.012l24.264,0c-0.423,-2.735 -1.66,-5.158 -3.445,-7.012c-2.217,-2.302 -5.281,-3.726 -8.686,-3.733Zm-36.473,-0.798l-28.431,0c-1.068,0 -1.933,-0.899 -1.933,-2.007c0,-4.627 1.808,-8.82 4.729,-11.853c1.346,-1.398 2.929,-2.549 4.679,-3.386c-0.281,-0.237 -0.551,-0.49 -0.81,-0.757l-0.107,-0.121c-1.866,-1.999 -3.018,-4.717 -3.018,-7.71c0,-3.056 1.195,-5.825 3.125,-7.829l0.116,-0.113c1.926,-1.939 4.545,-3.133 7.428,-3.133c2.947,0 5.614,1.239 7.544,3.244l0.107,0.121c1.867,1.993 3.017,4.714 3.017,7.71c0,3.059 -1.193,5.827 -3.124,7.831c-0.256,0.264 -0.526,0.517 -0.805,0.755c1.753,0.836 3.338,1.988 4.687,3.388c2.921,3.033 4.729,7.226 4.729,11.853c0,1.099 -0.852,1.993 -1.933,2.007Zm36.473,-3.216c1.892,-0.007 3.581,-0.797 4.805,-2.068l0.003,0.003c1.229,-1.276 1.989,-3.043 1.989,-4.996c0,-1.952 -0.763,-3.719 -1.992,-4.997c-1.232,-1.276 -2.934,-2.067 -4.813,-2.067c-1.88,0 -3.583,0.791 -4.812,2.067c-1.23,1.278 -1.99,3.045 -1.99,4.997c0,1.948 0.76,3.715 1.99,4.993c1.229,1.277 2.932,2.068 4.812,2.068l0.008,0Zm-50.688,-11.543l-0.007,0c-3.403,0.01 -6.465,1.435 -8.68,3.734c-1.79,1.861 -3.033,4.293 -3.447,7.011l24.267,0c-0.423,-2.734 -1.661,-5.156 -3.448,-7.011c-2.216,-2.301 -5.278,-3.727 -8.685,-3.734Zm0,-4.01c1.89,-0.01 3.58,-0.8 4.804,-2.071c1.233,-1.277 1.994,-3.043 1.994,-4.994c0,-1.909 -0.727,-3.641 -1.905,-4.91l-0.089,-0.084c-1.229,-1.279 -2.931,-2.07 -4.811,-2.07c-1.841,0 -3.508,0.754 -4.73,1.978l-0.081,0.092c-1.232,1.276 -1.994,3.043 -1.994,4.994c0,1.912 0.727,3.644 1.905,4.91l0.089,0.084c1.229,1.279 2.931,2.071 4.811,2.071l0.007,0Zm27.84,-54.69c1.279,0.008 2.413,0.542 3.239,1.4l0.008,0.006c0.831,0.865 1.346,2.056 1.346,3.364l0,4.314l6.664,0c1.196,0 2.29,0.485 3.111,1.273l0.134,0.128c0.831,0.861 1.349,2.056 1.349,3.369l0,25.596l-0.01,0c0,0.591 -0.252,1.174 -0.731,1.567c-0.834,0.685 -2.042,0.538 -2.701,-0.328l-5.334,-7.002l-21.004,0c-1.284,-0.009 -2.423,-0.543 -3.247,-1.401c-0.831,-0.863 -1.349,-2.057 -1.349,-3.37l0,-4.314l-2.481,0l-5.332,7.001c-0.658,0.865 -1.87,1.013 -2.702,0.33c-0.474,-0.388 -0.723,-0.962 -0.73,-1.566l-0.01,0l0,-25.597c0,-1.316 0.515,-2.508 1.349,-3.37l0.142,-0.134c0.814,-0.78 1.895,-1.258 3.105,-1.266l25.184,0Zm-13.929,13.098c-0.204,0 -0.387,0.083 -0.518,0.218c-0.13,0.137 -0.212,0.327 -0.212,0.538l0,15.062c0,0.209 0.082,0.399 0.214,0.535c0.135,0.138 0.318,0.225 0.516,0.225l21.929,0c0.68,0 1.277,0.363 1.623,0.915l2.362,3.103l0,-19.84c0,-0.206 -0.081,-0.395 -0.213,-0.535l-0.049,-0.05c-0.127,-0.108 -0.289,-0.171 -0.466,-0.171l-25.186,0Zm14.659,-4.014l0,-4.314c0,-0.211 -0.082,-0.401 -0.211,-0.538c-0.132,-0.137 -0.318,-0.221 -0.519,-0.221l-25.184,0c-0.182,0 -0.344,0.065 -0.466,0.168l-0.051,0.055c-0.131,0.138 -0.216,0.328 -0.216,0.536l0,19.84l2.363,-3.104c0.341,-0.543 0.925,-0.907 1.623,-0.917l3.406,0l0,-6.735c0,-1.308 0.518,-2.5 1.349,-3.362l0.008,-0.007c0.824,-0.856 1.96,-1.393 3.239,-1.401l14.659,0Z" style="fill:#fff;"/></svg>