<?xml version="1.0" encoding="UTF-8" standalone="no"?><!DOCTYPE svg PUBLIC "-//W3C//DTD SVG 1.1//EN" "http://www.w3.org/Graphics/SVG/1.1/DTD/svg11.dtd"><svg width="100%" height="100%" viewBox="0 0 46 42" version="1.1" xmlns="http://www.w3.org/2000/svg" xmlns:xlink="http://www.w3.org/1999/xlink" xml:space="preserve" xmlns:serif="http://www.serif.com/" style="fill-rule:evenodd;clip-rule:evenodd;stroke-linejoin:round;stroke-miterlimit:1.41421;"><path id="Shape-14" serif:id="Shape 14" d="M26.996,38.683l0,-25.212l0,-0.003c0,-0.037 -0.014,-0.067 -0.034,-0.087l-0.004,0c-0.023,-0.025 -0.058,-0.04 -0.091,-0.04l-8.717,0c-0.037,0 -0.07,0.014 -0.094,0.037l0.003,0.001c-0.025,0.025 -0.04,0.057 -0.04,0.092l0,9.998l0.001,0.03l0,15.184l8.976,0Zm-25.816,2.33c-0.649,0 -1.173,-0.523 -1.173,-1.166c0,-0.642 0.524,-1.164 1.173,-1.164l3.167,0l0,-15.184c0,-0.634 0.246,-1.215 0.649,-1.652l0.078,-0.085c0.449,-0.444 1.067,-0.72 1.751,-0.72l8.717,0c0.043,0 0.086,0 0.129,0.003l0,-7.574c0,-0.678 0.279,-1.292 0.727,-1.737l0.005,0c0.449,-0.444 1.068,-0.721 1.747,-0.721l8.717,0c0.043,0 0.086,0.001 0.129,0.003l0,-7.573c0,-0.678 0.278,-1.293 0.727,-1.737c0.449,-0.446 1.07,-0.721 1.751,-0.721l8.718,0c0.683,0 1.302,0.275 1.751,0.721c0.449,0.444 0.727,1.059 0.727,1.737l0,35.24l3.167,0c0.648,0 1.173,0.522 1.173,1.164c0,0.643 -0.525,1.166 -1.173,1.166l-15.666,0l-11.325,0l-15.666,0l0,0Zm37.142,-2.33l0,-35.24c0,-0.035 -0.015,-0.067 -0.038,-0.091c-0.025,-0.024 -0.057,-0.039 -0.092,-0.039l-8.718,0c-0.035,0 -0.067,0.015 -0.09,0.039c-0.025,0.024 -0.039,0.056 -0.039,0.091l0,35.24l8.977,0Zm-22.651,-15.193c-0.001,-0.032 -0.017,-0.06 -0.039,-0.081l-0.015,-0.017c-0.022,-0.014 -0.048,-0.022 -0.075,-0.022l-8.717,0c-0.035,0 -0.068,0.014 -0.091,0.039l-0.017,0.015c-0.014,0.021 -0.022,0.047 -0.022,0.075l0,15.184l8.976,0l0,-15.19l0,-0.003Z" style="fill:#001b85;"/></svg>