<?xml version="1.0" encoding="UTF-8" standalone="no"?><!DOCTYPE svg PUBLIC "-//W3C//DTD SVG 1.1//EN" "http://www.w3.org/Graphics/SVG/1.1/DTD/svg11.dtd"><svg width="100%" height="100%" viewBox="0 0 18 21" version="1.1" xmlns="http://www.w3.org/2000/svg" xmlns:xlink="http://www.w3.org/1999/xlink" xml:space="preserve" xmlns:serif="http://www.serif.com/" style="fill-rule:evenodd;clip-rule:evenodd;stroke-linejoin:round;stroke-miterlimit:1.41421;"><path id="Shape-7" serif:id="Shape 7" d="M16.872,9.317c-0.179,-0.214 -0.388,-0.399 -0.624,-0.547c-0.016,-1.21 -0.092,-2.311 -0.412,-3.356c-0.419,-1.368 -1.218,-2.563 -2.747,-3.624c-1.191,-0.825 -2.567,-1.238 -3.945,-1.238c-1.376,-0.002 -2.751,0.411 -3.944,1.235c-1.529,1.061 -2.329,2.256 -2.749,3.626c-0.323,1.052 -0.401,2.15 -0.418,3.354c-0.229,0.147 -0.435,0.33 -0.609,0.539c-0.414,0.495 -0.67,1.151 -0.67,1.803l0,7.034c0,0.749 0.298,1.429 0.777,1.923l0,0.005c0.477,0.493 1.139,0.799 1.867,0.799l11.485,0c0.723,0 1.383,-0.307 1.864,-0.803l0.002,0.002c0.478,-0.494 0.777,-1.176 0.777,-1.926l0,-7.034c0,-0.666 -0.246,-1.303 -0.654,-1.792Zm-12.227,-3.189c0.27,-0.88 0.801,-1.659 1.832,-2.373c0.809,-0.559 1.739,-0.837 2.667,-0.837c0.929,0 1.861,0.281 2.669,0.841c1.029,0.713 1.561,1.493 1.829,2.37c0.204,0.67 0.278,1.429 0.304,2.273l-9.602,0c0.026,-0.85 0.099,-1.612 0.301,-2.274Zm10.578,12.015c0,0.096 -0.039,0.183 -0.101,0.247l0,0.004c-0.06,0.062 -0.145,0.101 -0.239,0.101l-11.485,0c-0.092,0 -0.178,-0.041 -0.24,-0.105l-0.002,0.003c-0.06,-0.064 -0.098,-0.153 -0.098,-0.25l0,-7.034c0,-0.085 0.039,-0.179 0.101,-0.254c0.033,-0.037 0.065,-0.067 0.091,-0.078l11.765,0c0.045,0.016 0.087,0.048 0.122,0.089c0.053,0.066 0.086,0.152 0.086,0.243l0,7.034Z" style="fill:#001b85;"/></svg>