<?xml version="1.0" encoding="UTF-8" standalone="no"?><!DOCTYPE svg PUBLIC "-//W3C//DTD SVG 1.1//EN" "http://www.w3.org/Graphics/SVG/1.1/DTD/svg11.dtd"><svg width="100%" height="100%" viewBox="0 0 19 19" version="1.1" xmlns="http://www.w3.org/2000/svg" xmlns:xlink="http://www.w3.org/1999/xlink" xml:space="preserve" xmlns:serif="http://www.serif.com/" style="fill-rule:evenodd;clip-rule:evenodd;stroke-linejoin:round;stroke-miterlimit:1.41421;"><path id="Shape-24" serif:id="Shape 24" d="M18.576,3.688l-3.167,-3.153l-0.041,-0.038l0.002,-0.001c-0.019,-0.017 -0.046,-0.027 -0.074,-0.027c-0.026,0 -0.052,0.01 -0.071,0.028l-5.213,5.186c-0.279,0.279 -0.733,0.279 -1.014,0l-5.191,-5.166c-0.02,-0.019 -0.047,-0.027 -0.074,-0.027c-0.029,0 -0.056,0.009 -0.075,0.027l-3.211,3.191c-0.017,0.018 -0.026,0.045 -0.026,0.074c0,0.03 0.01,0.059 0.029,0.079l5.154,5.126l0.038,0.035c0.279,0.278 0.279,0.731 0,1.008l-5.171,5.144c-0.023,0.023 -0.034,0.05 -0.034,0.075c0,0.026 0.01,0.053 0.031,0.074l3.207,3.19l-0.001,0.002c0.019,0.018 0.047,0.027 0.078,0.027c0.028,0 0.055,-0.008 0.072,-0.026l5.139,-5.111l0.035,-0.037c0.281,-0.279 0.735,-0.279 1.014,0l5.201,5.171c0.016,0.017 0.041,0.024 0.065,0.024c0.021,0 0.041,-0.006 0.057,-0.016c1.063,-1.081 2.156,-2.145 3.231,-3.214c0.015,-0.017 0.024,-0.04 0.024,-0.065c0,-0.021 -0.006,-0.041 -0.016,-0.058c-1.751,-1.703 -3.475,-3.456 -5.208,-5.18c-0.279,-0.277 -0.279,-0.73 0,-1.008l5.21,-5.183l0.003,0c0.018,-0.019 0.028,-0.046 0.028,-0.075c0,-0.026 -0.01,-0.052 -0.028,-0.07l-0.003,-0.006Z" style="fill:#fff;"/></svg>