<?xml version="1.0" encoding="UTF-8" standalone="no"?><!DOCTYPE svg PUBLIC "-//W3C//DTD SVG 1.1//EN" "http://www.w3.org/Graphics/SVG/1.1/DTD/svg11.dtd"><svg width="100%" height="100%" viewBox="0 0 23 24" version="1.1" xmlns="http://www.w3.org/2000/svg" xmlns:xlink="http://www.w3.org/1999/xlink" xml:space="preserve" xmlns:serif="http://www.serif.com/" style="fill-rule:evenodd;clip-rule:evenodd;stroke-linejoin:round;stroke-miterlimit:1.41421;"><path id="Shape-5" serif:id="Shape 5" d="M19.768,14.369c-0.918,-0.872 -1.997,-1.59 -3.192,-2.111c0.191,-0.148 0.374,-0.305 0.548,-0.472l0,-0.003c1.316,-1.251 2.129,-2.975 2.129,-4.876c0,-1.907 -0.813,-3.632 -2.129,-4.883c-1.314,-1.248 -3.131,-2.021 -5.138,-2.021c-2.005,0 -3.822,0.773 -5.137,2.021c-1.314,1.251 -2.129,2.976 -2.129,4.883c0,1.905 0.815,3.63 2.129,4.879c0.175,0.167 0.361,0.326 0.552,0.474c-1.193,0.52 -2.27,1.239 -3.187,2.109c-1.991,1.891 -3.22,4.503 -3.22,7.39c0,0.69 0.587,1.249 1.314,1.249l19.365,0c0.728,0 1.317,-0.559 1.317,-1.249c0,-2.887 -1.232,-5.499 -3.222,-7.39Zm-12.415,-7.462c0,-1.217 0.519,-2.319 1.356,-3.115c0.837,-0.795 1.997,-1.289 3.277,-1.289c1.28,0 2.439,0.494 3.279,1.289c0.837,0.796 1.356,1.898 1.356,3.115c0,1.217 -0.517,2.318 -1.355,3.114l-0.001,-0.002c-0.838,0.796 -1.995,1.289 -3.273,1.289l-0.006,0c-1.28,0 -2.44,-0.493 -3.277,-1.289c-0.837,-0.797 -1.356,-1.898 -1.356,-3.112Zm-3.625,13.601c0.283,-1.695 1.127,-3.212 2.346,-4.371c1.514,-1.437 3.604,-2.327 5.912,-2.327l0.006,0c2.309,0 4.402,0.888 5.916,2.327c1.22,1.159 2.064,2.676 2.346,4.371l-16.526,0Z" style="fill:#001b85;fill-rule:nonzero;"/></svg>