<?xml version="1.0" encoding="UTF-8" standalone="no"?><!DOCTYPE svg PUBLIC "-//W3C//DTD SVG 1.1//EN" "http://www.w3.org/Graphics/SVG/1.1/DTD/svg11.dtd"><svg width="100%" height="100%" viewBox="0 0 45 40" version="1.1" xmlns="http://www.w3.org/2000/svg" xmlns:xlink="http://www.w3.org/1999/xlink" xml:space="preserve" xmlns:serif="http://www.serif.com/" style="fill-rule:evenodd;clip-rule:evenodd;stroke-linejoin:round;stroke-miterlimit:1.41421;"><path id="Shape-3" serif:id="Shape 3" d="M17.121,8.759c-4.142,0 -7.895,1.634 -10.609,4.275c-2.715,2.642 -4.395,6.293 -4.395,10.325c0,4.032 1.68,7.683 4.395,10.325c2.714,2.641 6.467,4.276 10.609,4.276c4.144,0 7.896,-1.635 10.611,-4.276c2.714,-2.642 4.395,-6.293 4.395,-10.325c0,-4.032 -1.681,-7.683 -4.395,-10.325c-2.715,-2.641 -6.467,-4.275 -10.611,-4.275l0,0Zm-4.772,-1.385l0,-0.019l0,-6.323c0,-0.564 0.469,-1.022 1.049,-1.022l30.548,0c0.579,0 1.05,0.458 1.05,1.022l0,32.928c0,0.564 -0.471,1.022 -1.05,1.022l-14.584,0l-0.147,0.145c-3.095,3.012 -7.371,4.875 -12.094,4.875c-4.722,0 -8.998,-1.863 -12.092,-4.875c-3.096,-3.011 -5.011,-7.173 -5.011,-11.768c0,-4.595 1.915,-8.757 5.011,-11.767c2.008,-1.956 4.516,-3.426 7.32,-4.218l0,0Zm18.758,25.566c1.324,-1.827 2.28,-3.925 2.762,-6.191l9.027,0l0,6.191l-11.789,0l0,0Zm3.061,-8.233l8.728,0l0,-6.19l-9.406,0c0.477,1.533 0.735,3.158 0.735,4.842c0,0.455 -0.02,0.904 -0.057,1.348l0,0Zm-1.472,-8.232c-0.855,-1.828 -2.04,-3.481 -3.481,-4.883c-0.476,-0.463 -0.981,-0.9 -1.511,-1.306l15.192,0l0,6.189l-10.2,0l0,0Zm-8.411,-8.232l18.611,0l0,-6.19l-28.448,0l0,4.866c0.871,-0.133 1.764,-0.202 2.673,-0.202c2.558,0 4.984,0.546 7.164,1.526l0,0Zm-8.212,5.223c0,-0.564 0.47,-1.022 1.049,-1.022c0.58,0 1.049,0.458 1.049,1.022l0,1.022l3.732,0c0.58,0 1.049,0.457 1.049,1.021c0,0.563 -0.469,1.021 -1.049,1.021l-3.732,0l0,5.808l2.037,0c0.998,0 1.907,0.386 2.578,1.01l0.066,0.059c0.678,0.658 1.097,1.569 1.097,2.572l0,2.61c0,1.001 -0.419,1.911 -1.097,2.57l-0.003,0.004c-0.678,0.659 -1.613,1.068 -2.641,1.068l-2.037,0l0,1.022c0,0.563 -0.469,1.021 -1.049,1.021c-0.579,0 -1.049,-0.458 -1.049,-1.021l0,-1.022l-4.73,0c-0.58,0 -1.049,-0.458 -1.049,-1.022c0,-0.563 0.469,-1.021 1.049,-1.021l4.73,0l0,-5.808l-2.038,0c-1.03,0 -1.967,-0.408 -2.644,-1.067c-0.678,-0.659 -1.097,-1.571 -1.097,-2.573l0,-2.611c0,-1.003 0.419,-1.913 1.097,-2.573c0.677,-0.659 1.612,-1.068 2.644,-1.068l2.038,0l0,-1.022l0,0Zm2.098,10.914l2.037,0c0.433,0 0.828,0.164 1.122,0.43l0.038,0.04c0.298,0.29 0.483,0.69 0.483,1.129l0,2.61c0,0.442 -0.184,0.842 -0.48,1.132c-0.298,0.289 -0.709,0.467 -1.163,0.467l-2.037,0l0,-5.808l0,0Zm-2.098,-2.042l-2.038,0c-0.453,0 -0.863,-0.18 -1.16,-0.47c-0.298,-0.288 -0.483,-0.688 -0.483,-1.128l0,-2.611c0,-0.441 0.185,-0.839 0.483,-1.129c0.297,-0.29 0.707,-0.47 1.16,-0.47l2.038,0l0,5.808Z" style="fill:#001b85;"/></svg>