<?xml version="1.0" encoding="UTF-8" standalone="no"?><!DOCTYPE svg PUBLIC "-//W3C//DTD SVG 1.1//EN" "http://www.w3.org/Graphics/SVG/1.1/DTD/svg11.dtd"><svg width="100%" height="100%" viewBox="0 0 21 21" version="1.1" xmlns="http://www.w3.org/2000/svg" xmlns:xlink="http://www.w3.org/1999/xlink" xml:space="preserve" xmlns:serif="http://www.serif.com/" style="fill-rule:evenodd;clip-rule:evenodd;stroke-linejoin:round;stroke-miterlimit:1.41421;"><path id="Shape-5-copy" serif:id="Shape 5 copy" d="M17.4,13.244c-0.811,-0.77 -1.763,-1.404 -2.818,-1.864c0.168,-0.131 0.331,-0.269 0.484,-0.417l0,-0.003c1.161,-1.104 1.879,-2.625 1.879,-4.304c0,-1.683 -0.718,-3.207 -1.879,-4.31c-1.16,-1.102 -2.764,-1.784 -4.535,-1.784c-1.77,0 -3.375,0.682 -4.535,1.784c-1.16,1.103 -1.879,2.627 -1.879,4.31c0,1.682 0.719,3.204 1.879,4.307c0.154,0.148 0.318,0.288 0.487,0.418c-1.053,0.46 -2.004,1.094 -2.813,1.863c-1.758,1.669 -2.843,3.974 -2.843,6.523c0,0.609 0.519,1.102 1.16,1.102l17.095,0c0.642,0 1.162,-0.493 1.162,-1.102c0,-2.549 -1.087,-4.854 -2.844,-6.523Zm-10.959,-6.588c0,-1.074 0.457,-2.047 1.197,-2.749c0.739,-0.703 1.762,-1.138 2.893,-1.138c1.13,0 2.153,0.435 2.893,1.138c0.74,0.702 1.198,1.675 1.198,2.749c0,1.075 -0.457,2.047 -1.196,2.749l-0.002,-0.002c-0.739,0.703 -1.76,1.138 -2.888,1.138l-0.005,0c-1.131,0 -2.154,-0.435 -2.893,-1.138c-0.74,-0.703 -1.197,-1.675 -1.197,-2.747Zm-3.2,12.007c0.25,-1.497 0.995,-2.836 2.071,-3.859c1.336,-1.268 3.181,-2.054 5.219,-2.054l0.005,0c2.038,0 3.886,0.784 5.222,2.054c1.077,1.023 1.822,2.362 2.071,3.859l-14.588,0Z" style="fill:#001b85;fill-rule:nonzero;"/></svg>