<?xml version="1.0" encoding="UTF-8" standalone="no"?><!DOCTYPE svg PUBLIC "-//W3C//DTD SVG 1.1//EN" "http://www.w3.org/Graphics/SVG/1.1/DTD/svg11.dtd"><svg width="100%" height="100%" viewBox="0 0 26 29" version="1.1" xmlns="http://www.w3.org/2000/svg" xmlns:xlink="http://www.w3.org/1999/xlink" xml:space="preserve" xmlns:serif="http://www.serif.com/" style="fill-rule:evenodd;clip-rule:evenodd;stroke-linejoin:round;stroke-miterlimit:1.41421;"><path id="Shape-19-copy-2" serif:id="Shape 19 copy 2" d="M0.046,26.544l0.006,-24.086l-0.003,0c0,-0.669 0.264,-1.277 0.691,-1.718l0.002,-0.003c0.427,-0.441 1.014,-0.715 1.662,-0.715l0,0.004l4.888,0.001c0.025,-0.001 0.05,-0.003 0.075,-0.003l13.207,0c0.041,0 0.08,0.003 0.119,0.01l1.548,0c0.209,0 0.399,0.088 0.536,0.231l2.978,3.081c0.155,0.161 0.229,0.374 0.22,0.584l-0.008,22.622c0,0.671 -0.265,1.28 -0.691,1.722c-0.427,0.439 -1.014,0.713 -1.662,0.713l0,-0.003l-21.216,-0.009l0,0.004c-0.647,0 -1.234,-0.274 -1.663,-0.716l-0.001,0.001c-0.426,-0.441 -0.691,-1.05 -0.691,-1.72l0.003,0Zm21.089,-12.338l-16.256,0l0,10.1l16.256,0l0,-10.1l0,0Zm-17.016,-1.571c-0.419,0 -0.759,0.352 -0.759,0.785l0,11.671c0,0.435 0.34,0.786 0.759,0.786l17.776,0c0.419,0 0.76,-0.351 0.76,-0.786l0,-11.671c0,-0.433 -0.341,-0.785 -0.76,-0.785l-17.776,0l0,0Zm14.356,-11.038l0,5.582c0,0.434 -0.341,0.784 -0.76,0.784l-3.801,0c-0.419,0 -0.759,-0.35 -0.759,-0.784l0,-5.584l-5.028,0l0,7.853l11.688,0l0,-7.85l-1.34,-0.001l0,0Zm-1.52,0.001l-2.281,0l0,4.795l2.281,0l0,-4.795l0,0Zm4.379,0l0,8.636c0,0.434 -0.34,0.785 -0.76,0.785l-13.207,0c-0.419,0 -0.759,-0.351 -0.759,-0.785l0,-8.642l-4.204,-0.002l0,0.004c-0.23,0 -0.44,0.095 -0.591,0.25l-0.003,0.003c-0.149,0.157 -0.242,0.372 -0.242,0.61l-0.003,0.001l-0.003,12.042l-0.003,12.044l0.003,0c0,0.238 0.094,0.453 0.245,0.61l0,0.004c0.15,0.154 0.359,0.25 0.591,0.25l0,0.003l21.216,0.009l0,-0.004c0.232,0 0.443,-0.096 0.594,-0.253c0.151,-0.156 0.246,-0.373 0.246,-0.611l0.008,-22.33l-2.536,-2.624l-0.592,0Z" style="fill:#fff;"/></svg>