<?xml version="1.0" encoding="UTF-8" standalone="no"?><!DOCTYPE svg PUBLIC "-//W3C//DTD SVG 1.1//EN" "http://www.w3.org/Graphics/SVG/1.1/DTD/svg11.dtd"><svg width="100%" height="100%" viewBox="0 0 56 46" version="1.1" xmlns="http://www.w3.org/2000/svg" xmlns:xlink="http://www.w3.org/1999/xlink" xml:space="preserve" xmlns:serif="http://www.serif.com/" style="fill-rule:evenodd;clip-rule:evenodd;stroke-linejoin:round;stroke-miterlimit:1.41421;"><path id="Shape-2" serif:id="Shape 2" d="M28.002,41.952c1.363,-0.983 2.897,-2.031 4.529,-3.146c8.834,-6.029 20.672,-14.11 20.672,-22.426c0,-5.026 -2.272,-8.634 -5.428,-10.675c-1.612,-1.045 -3.457,-1.686 -5.347,-1.904c-1.899,-0.218 -3.834,-0.014 -5.62,0.636c-3.419,1.242 -6.333,4.137 -7.443,8.843c-0.173,0.735 -0.922,1.196 -1.674,1.027c-0.547,-0.121 -0.944,-0.543 -1.054,-1.044c-1.112,-4.694 -4.023,-7.586 -7.44,-8.826c-1.785,-0.648 -3.721,-0.854 -5.618,-0.636c-1.892,0.218 -3.737,0.859 -5.35,1.904c-3.154,2.039 -5.427,5.649 -5.427,10.675c0,8.316 11.84,16.397 20.671,22.426c1.633,1.115 3.167,2.163 4.529,3.146l0,0Zm6.128,-0.91c-1.961,1.338 -3.78,2.58 -5.27,3.686c-0.485,0.371 -1.185,0.394 -1.699,0.011c-1.493,-1.108 -3.316,-2.353 -5.284,-3.697c-9.347,-6.38 -21.875,-14.932 -21.875,-24.662c0,-6.052 2.8,-10.44 6.686,-12.955c1.985,-1.284 4.253,-2.074 6.573,-2.341c2.316,-0.266 4.694,-0.01 6.909,0.796c3.211,1.167 6.056,3.477 7.832,7.004c1.779,-3.529 4.623,-5.837 7.834,-7.004c2.215,-0.806 4.594,-1.062 6.908,-0.796c2.322,0.267 4.59,1.057 6.575,2.341c3.886,2.515 6.684,6.903 6.684,12.955c0,9.73 -12.526,18.282 -21.873,24.662Z" style="fill:#e30513;"/></svg>