<?xml version="1.0" encoding="UTF-8" standalone="no"?><!DOCTYPE svg PUBLIC "-//W3C//DTD SVG 1.1//EN" "http://www.w3.org/Graphics/SVG/1.1/DTD/svg11.dtd"><svg width="100%" height="100%" viewBox="0 0 56 50" version="1.1" xmlns="http://www.w3.org/2000/svg" xmlns:xlink="http://www.w3.org/1999/xlink" xml:space="preserve" xmlns:serif="http://www.serif.com/" style="fill-rule:evenodd;clip-rule:evenodd;stroke-linejoin:round;stroke-miterlimit:1.41421;"><path id="Shape-3" serif:id="Shape 3" d="M51.524,24.729l0.782,-1.801l-7.411,0.011c-0.411,0 -0.789,0.114 -1.101,0.32c-0.274,0.182 -0.49,0.434 -0.623,0.738l-0.632,1.454l0.636,1.461c0.132,0.305 0.35,0.559 0.625,0.74c0.313,0.207 0.692,0.32 1.106,0.32l7.4,-0.013l-0.815,-1.859c-0.193,-0.443 -0.168,-0.972 0.033,-1.371l0,0Zm-10.722,2.017l0.634,1.456c0.334,0.765 0.842,1.375 1.463,1.786c0.559,0.37 1.217,0.579 1.919,0.594c-1.081,4.585 -3.578,8.61 -6.996,11.56c-3.728,3.222 -8.554,5.164 -13.826,5.164c-11.826,0 -21.421,-9.783 -21.421,-21.851c0,-6.037 2.399,-11.5 6.274,-15.457c3.877,-3.956 9.232,-6.402 15.147,-6.402c5.272,0 10.098,1.942 13.825,5.163c3.419,2.953 5.917,6.98 6.997,11.568c-0.705,0.016 -1.364,0.226 -1.925,0.598c-0.619,0.411 -1.126,1.018 -1.458,1.783l-0.63,1.443l-1.747,0.002c-0.319,-3.91 -2.066,-7.405 -4.708,-9.942c-2.707,-2.6 -6.352,-4.192 -10.358,-4.192c-4.172,0 -7.953,1.728 -10.689,4.519l-0.005,0c-2.738,2.792 -4.431,6.65 -4.431,10.912c0,4.261 1.693,8.119 4.431,10.912c2.736,2.794 6.518,4.52 10.694,4.52c4.005,0 7.649,-1.593 10.357,-4.19c2.641,-2.537 4.39,-6.034 4.709,-9.944l1.744,-0.002l0,0Zm-4.307,0.002l-5.598,0.003c-0.296,1.637 -1.137,3.081 -2.325,4.126c-1.234,1.084 -2.835,1.74 -4.582,1.74c-1.938,0 -3.694,-0.802 -4.964,-2.098c-1.271,-1.296 -2.056,-3.088 -2.056,-5.068c0,-1.974 0.785,-3.764 2.056,-5.062c1.274,-1.298 3.029,-2.103 4.964,-2.103c1.749,0 3.352,0.655 4.585,1.742c1.187,1.044 2.028,2.49 2.322,4.127l5.6,-0.002c-0.31,-3.16 -1.747,-5.984 -3.894,-8.044c-2.247,-2.158 -5.277,-3.48 -8.611,-3.48c-3.472,0 -6.616,1.433 -8.888,3.752l0.002,0.002c-2.274,2.32 -3.681,5.527 -3.681,9.067c0,3.541 1.408,6.748 3.681,9.068c2.274,2.32 5.415,3.756 8.886,3.756c3.333,0 6.362,-1.323 8.61,-3.478c2.146,-2.063 3.583,-4.887 3.893,-8.048l0,0Zm-8.222,0.003l-4.627,0.002c-0.701,0 -1.272,-0.581 -1.272,-1.297c0,-0.717 0.571,-1.298 1.272,-1.298l4.629,-0.001c-0.245,-0.85 -0.727,-1.598 -1.368,-2.161c-0.778,-0.686 -1.799,-1.1 -2.917,-1.1c-1.235,0 -2.351,0.507 -3.157,1.329c-0.807,0.824 -1.307,1.964 -1.307,3.226c0,1.259 0.5,2.398 1.309,3.222c0.808,0.823 1.924,1.334 3.155,1.334c1.118,0 2.137,-0.413 2.914,-1.098c0.641,-0.564 1.124,-1.308 1.369,-2.158l0,0Zm19.16,3.828c-1.127,5.389 -3.99,10.12 -7.962,13.552c-4.177,3.609 -9.578,5.784 -15.475,5.784c-13.239,0 -23.978,-10.951 -23.978,-24.46c0,-6.758 2.685,-12.874 7.022,-17.301c4.34,-4.429 10.336,-7.168 16.956,-7.168c5.895,0 11.298,2.177 15.475,5.785c3.971,3.431 6.834,8.163 7.962,13.553l6.543,-0.009c0.183,-0.012 0.371,0.041 0.542,0.168c0.478,0.358 0.648,1.156 0.375,1.782l-1.382,3.18l1.388,3.166c0.082,0.192 0.129,0.415 0.129,0.651c0,0.721 -0.446,1.305 -0.998,1.305l-6.597,0.012Z" style="fill:#001b85;"/></svg>