<?xml version="1.0" encoding="UTF-8" standalone="no"?><!DOCTYPE svg PUBLIC "-//W3C//DTD SVG 1.1//EN" "http://www.w3.org/Graphics/SVG/1.1/DTD/svg11.dtd"><svg width="100%" height="100%" viewBox="0 0 43 42" version="1.1" xmlns="http://www.w3.org/2000/svg" xmlns:xlink="http://www.w3.org/1999/xlink" xml:space="preserve" xmlns:serif="http://www.serif.com/" style="fill-rule:evenodd;clip-rule:evenodd;stroke-linejoin:round;stroke-miterlimit:1.41421;"><path id="Shape-2" serif:id="Shape 2" d="M5.135,2.513l33.697,-0.015c0.428,0 0.82,0.171 1.106,0.445c0.282,0.273 0.458,0.649 0.458,1.059l0.01,21.843c-3.952,-0.358 -8.036,0.276 -12.265,1.25c-6.108,-0.286 -9.566,-1.271 -12.863,-2.212c-3.282,-0.934 -6.414,-1.828 -11.697,-2.007l-0.008,-18.856c0,-0.414 0.177,-0.79 0.462,-1.065c0.283,-0.273 0.674,-0.442 1.1,-0.442l0,0Zm35.273,25.837l0.006,9.629c0,0.412 -0.178,0.79 -0.463,1.064c-0.283,0.272 -0.674,0.441 -1.102,0.441l-33.695,0.015c-0.428,0 -0.821,-0.17 -1.105,-0.445c-0.284,-0.271 -0.46,-0.647 -0.46,-1.059l-0.001,-3.734c6.758,0.026 13.189,-1.663 19.31,-3.273c1.908,-0.501 3.785,-0.995 5.627,-1.422c0.026,-0.004 0.05,-0.011 0.076,-0.018c4.139,-0.957 8.095,-1.576 11.807,-1.198l0,0Zm-36.822,3.42c6.047,0.025 11.939,-1.429 17.572,-2.903c-2.595,-0.448 -4.63,-1.028 -6.61,-1.593c-3.103,-0.884 -6.064,-1.729 -10.965,-1.908l0.003,6.404Zm-2.588,-7.726l-0.002,0.033l0.002,0.064l0.004,8.677c-0.006,0.039 -0.011,0.08 -0.012,0.121c-0.002,0.076 0.001,0.149 0.012,0.222l0.002,4.834c0.001,1.102 0.467,2.102 1.219,2.826c0.749,0.719 1.788,1.167 2.931,1.166l33.695,-0.013c1.144,-0.002 2.184,-0.45 2.936,-1.174c0.749,-0.721 1.213,-1.721 1.213,-2.821l-0.017,-33.977c0,-1.102 -0.468,-2.102 -1.218,-2.824c-0.751,-0.721 -1.788,-1.168 -2.931,-1.168l-33.697,0.015c-1.145,0 -2.184,0.45 -2.934,1.174c-0.749,0.721 -1.213,1.72 -1.213,2.821l0.01,20.024Zm28.52,-18.214c-1.937,0 -3.695,0.759 -4.964,1.982c-1.267,1.22 -2.052,2.91 -2.052,4.775l-0.005,0l0.005,0c0.002,1.867 0.788,3.557 2.061,4.779c1.267,1.22 3.022,1.973 4.96,1.973l0,0.005l0,-0.005c1.94,-0.001 3.695,-0.758 4.966,-1.981c1.266,-1.221 2.05,-2.91 2.048,-4.776c0,-1.865 -0.787,-3.557 -2.058,-4.778c-1.268,-1.221 -3.023,-1.976 -4.961,-1.974l0,0Zm-3.13,3.737c-0.804,0.775 -1.302,1.842 -1.3,3.02l0.005,0l-0.005,0c0,1.177 0.496,2.243 1.298,3.013c0.805,0.774 1.914,1.252 3.137,1.252l0,-0.005l0,0.005c1.222,-0.002 2.33,-0.478 3.131,-1.25c0.803,-0.776 1.299,-1.843 1.299,-3.02c0,-1.175 -0.496,-2.241 -1.298,-3.013c-0.803,-0.773 -1.914,-1.251 -3.137,-1.251c-1.221,0 -2.329,0.478 -3.13,1.249Z" style="fill:#001b85;"/></svg>