<?xml version="1.0" encoding="UTF-8" standalone="no"?><!DOCTYPE svg PUBLIC "-//W3C//DTD SVG 1.1//EN" "http://www.w3.org/Graphics/SVG/1.1/DTD/svg11.dtd"><svg width="100%" height="100%" viewBox="0 0 46 45" version="1.1" xmlns="http://www.w3.org/2000/svg" xmlns:xlink="http://www.w3.org/1999/xlink" xml:space="preserve" xmlns:serif="http://www.serif.com/" style="fill-rule:evenodd;clip-rule:evenodd;stroke-linejoin:round;stroke-miterlimit:1.41421;"><path id="Shape-4" serif:id="Shape 4" d="M4.378,-0.003l36.254,0c1.204,0 2.299,0.518 3.093,1.353c0.793,0.835 1.284,1.985 1.284,3.248l0,35.807c0,1.26 -0.493,2.411 -1.285,3.242c-0.795,0.835 -1.889,1.353 -3.092,1.353l0,-0.004l-18.055,0.001c-0.024,0.002 -0.049,0.003 -0.072,0.003l-0.072,-0.003l-18.055,0.002l0,0.005c-1.204,0 -2.297,-0.519 -3.091,-1.354c-0.794,-0.833 -1.286,-1.985 -1.286,-3.245l0,-35.807c0,-1.264 0.491,-2.414 1.284,-3.248c0.794,-0.835 1.888,-1.353 3.093,-1.353l0,0Zm16.938,21.253l0,-5.268c0,-0.689 0.533,-1.247 1.189,-1.247l1.935,0c0.755,0 1.436,-0.321 1.93,-0.838l0.052,-0.051c0.462,-0.513 0.747,-1.207 0.747,-1.975c0,-0.79 -0.305,-1.507 -0.799,-2.024c-0.494,-0.518 -1.175,-0.838 -1.93,-0.838l-1.935,0c-0.656,0 -1.189,-0.559 -1.189,-1.249l0,-5.268l-16.938,0c-0.554,0 -1.054,0.235 -1.413,0.613c-0.363,0.381 -0.586,0.909 -0.586,1.493l0,16.652l4.9,0l0,-0.785c0,-1.478 0.57,-2.818 1.495,-3.788c0.924,-0.971 2.2,-1.571 3.608,-1.571c1.403,0 2.678,0.6 3.603,1.57l0.006,0.005c0.925,0.972 1.495,2.311 1.495,3.784l0,0.785l3.83,0Zm2.377,-18.758l0,4.02l0.747,0c1.41,0 2.686,0.601 3.61,1.57c0.923,0.969 1.495,2.31 1.495,3.789c0,1.441 -0.544,2.749 -1.428,3.714l-0.067,0.075c-0.924,0.969 -2.2,1.57 -3.61,1.57l-0.747,0l0,4.02l5.019,0c0.657,0 1.188,0.56 1.188,1.249l0,2.032c0,0.796 0.304,1.511 0.795,2.026l0.003,0.005c0.491,0.515 1.173,0.833 1.93,0.833c0.754,0 1.437,-0.32 1.931,-0.837l-0.003,-0.001c0.494,-0.518 0.798,-1.234 0.798,-2.026l0,-2.032c0,-0.689 0.533,-1.249 1.189,-1.249l6.089,0l0,-16.652c0,-0.582 -0.225,-1.112 -0.588,-1.493c-0.359,-0.378 -0.859,-0.613 -1.412,-0.613l-16.939,0l0,0Zm-2.377,21.255l-5.017,0c-0.657,0 -1.189,-0.559 -1.189,-1.248l0,-2.034c0,-0.794 -0.303,-1.509 -0.794,-2.024l-0.005,-0.006c-0.49,-0.515 -1.173,-0.833 -1.929,-0.833c-0.753,0 -1.436,0.32 -1.928,0.839c-0.494,0.518 -0.799,1.233 -0.799,2.024l0,2.034c0,0.689 -0.533,1.248 -1.189,1.248l-6.087,0l0,16.658c0,0.58 0.225,1.11 0.588,1.49c0.359,0.379 0.857,0.613 1.411,0.613l0,0.006l16.938,-0.002l0,-4.029l-0.749,0c-1.409,0 -2.684,-0.6 -3.607,-1.569c-0.925,-0.97 -1.497,-2.31 -1.497,-3.79c0,-1.478 0.572,-2.817 1.495,-3.787c0.925,-0.969 2.2,-1.57 3.609,-1.57l0.749,0l0,-4.02l0,0Zm2.377,0l0,5.267c0,0.689 -0.532,1.248 -1.188,1.248l-1.938,0c-0.753,0 -1.436,0.32 -1.928,0.838c-0.493,0.519 -0.798,1.234 -0.798,2.024c0,0.793 0.305,1.508 0.798,2.026c0.494,0.517 1.175,0.839 1.928,0.839l1.938,0c0.656,0 1.188,0.559 1.188,1.248l0,5.275l16.939,-0.002l0,-0.004c0.553,0 1.051,-0.235 1.411,-0.613c0.364,-0.381 0.589,-0.908 0.589,-1.488l0,-16.658l-4.9,0l0,0.784c0,1.48 -0.572,2.819 -1.495,3.789l-0.005,0c-0.923,0.971 -2.198,1.57 -3.604,1.57c-1.404,0 -2.677,-0.599 -3.603,-1.568l-0.006,-0.007c-0.924,-0.971 -1.496,-2.309 -1.496,-3.784l0,-0.784l-3.83,0Z" style="fill:#001b85;"/></svg>