<?xml version="1.0" encoding="UTF-8" standalone="no"?><!DOCTYPE svg PUBLIC "-//W3C//DTD SVG 1.1//EN" "http://www.w3.org/Graphics/SVG/1.1/DTD/svg11.dtd"><svg width="100%" height="100%" viewBox="0 0 80 59" version="1.1" xmlns="http://www.w3.org/2000/svg" xmlns:xlink="http://www.w3.org/1999/xlink" xml:space="preserve" xmlns:serif="http://www.serif.com/" style="fill-rule:evenodd;clip-rule:evenodd;stroke-linejoin:round;stroke-miterlimit:1.41421;"><path id="Shape-16" serif:id="Shape 16" d="M30.904,31.01l31.141,-29.733l0.18,-0.153c0.875,-0.75 1.97,-1.123 3.06,-1.123c1.172,0 2.344,0.426 3.233,1.276l0.109,0.112l9.042,8.621c0.889,0.852 1.336,1.97 1.336,3.084c0,1.107 -0.445,2.227 -1.328,3.078l-3.896,3.721c-13.209,12.602 -26.407,25.195 -39.607,37.803l-0.08,0.081c-0.065,0.065 -0.135,0.123 -0.206,0.177l-0.197,0.154c-0.127,0.102 -0.263,0.189 -0.41,0.262l-0.088,0.051l0.003,0.003l-0.104,0.055c-0.085,0.049 -0.167,0.091 -0.255,0.124c-0.145,0.074 -0.301,0.132 -0.46,0.172c-0.162,0.064 -0.336,0.11 -0.513,0.135c-0.127,0.02 -0.25,0.043 -0.377,0.059c-0.093,0.014 -0.185,0.022 -0.276,0.025c-0.233,0.009 -0.41,0.011 -0.645,0l-0.256,-0.028l-0.483,-0.081c-0.122,-0.026 -0.236,-0.06 -0.348,-0.101c-0.111,-0.029 -0.218,-0.067 -0.318,-0.11l-0.095,-0.04c-0.079,-0.034 -0.162,-0.067 -0.252,-0.118c-0.106,-0.048 -0.207,-0.104 -0.303,-0.166l-0.434,-0.286c-0.123,-0.09 -0.256,-0.206 -0.395,-0.338l-0.006,0.003l-15.393,-14.693l-0.126,-0.135l-10.821,-10.325c-0.889,-0.852 -1.334,-1.968 -1.334,-3.079c0,-1.108 0.442,-2.223 1.326,-3.076l9.159,-8.741c0.898,-0.852 2.07,-1.277 3.233,-1.277c1.164,0 2.333,0.425 3.231,1.277l13.953,13.33Zm34.31,-26.708l-32.722,31.24l-0.009,0c-0.874,0.83 -2.288,0.827 -3.16,-0.008l-15.526,-14.835c-0.015,-0.011 -0.045,-0.02 -0.077,-0.02c-0.038,0 -0.067,0.009 -0.082,0.023l-9.124,8.708c-0.021,0.02 -0.032,0.054 -0.032,0.087c0,0.031 0.008,0.057 0.023,0.071l26.34,25.138c-0.011,0.012 0.045,0.017 0.054,0.02l0.053,-0.006l0.071,-0.044c13.201,-12.613 26.401,-25.206 39.607,-37.806l3.864,-3.686c0.021,-0.02 0.029,-0.054 0.029,-0.09c0,-0.033 -0.006,-0.062 -0.021,-0.076l-9.032,-8.612l-0.118,-0.104c-0.014,-0.017 -0.041,-0.023 -0.067,-0.023l-0.059,0.008l-0.012,0.015Z" style="fill:#0f0;"/></svg>