<?xml version="1.0" encoding="UTF-8" standalone="no"?><!DOCTYPE svg PUBLIC "-//W3C//DTD SVG 1.1//EN" "http://www.w3.org/Graphics/SVG/1.1/DTD/svg11.dtd"><svg width="100%" height="100%" viewBox="0 0 403 78" version="1.1" xmlns="http://www.w3.org/2000/svg" xmlns:xlink="http://www.w3.org/1999/xlink" xml:space="preserve" xmlns:serif="http://www.serif.com/" style="fill-rule:evenodd;clip-rule:evenodd;stroke-linejoin:round;stroke-miterlimit:1.41421;"><g><path d="M12.341,66.098c-1.429,-2.381 -3.499,-4.242 -5.224,-6.383c-2.053,-2.548 -4.238,-4.991 -6.394,-7.454c-0.424,-0.486 -0.488,-1.006 -0.487,-1.594c0.006,-4.727 0.044,-9.455 -0.023,-14.181c-0.018,-1.277 0.478,-1.565 1.623,-1.516c1.726,0.073 3.462,-0.052 5.186,0.043c1.251,0.068 1.55,-0.424 1.543,-1.597c-0.044,-7.09 0.031,-23.149 -0.061,-30.238c-0.022,-1.667 0.429,-2.201 2.106,-2.102c2.412,0.143 4.842,0.103 7.26,0.01c1.329,-0.051 1.806,0.305 1.777,1.721c-0.091,4.437 0.007,17.846 -0.059,22.283c-0.019,1.253 0.384,1.736 1.617,2.118c7.794,2.422 15.544,4.983 23.322,7.456c1.023,0.326 1.448,0.785 1.43,1.928c-0.071,4.611 -0.077,9.224 -0.002,13.835c0.025,1.528 -0.814,2.598 -1.503,3.773c-1.8,3.067 -3.421,6.243 -5.477,9.157c-1.285,0.323 -2.606,0.272 -3.909,0.4c-5.268,0.518 -10.541,1.018 -15.783,1.738c-1.498,0.206 -3.077,-0.072 -4.507,0.616l-2.435,-0.013Z" style="fill:#7e9bd0;fill-rule:nonzero;"/><path d="M41.671,70.289c0.016,1.671 0,3.343 0.062,5.012c0.032,0.868 -0.22,1.221 -1.158,1.219c-10.316,-0.027 -20.633,-0.027 -30.949,0c-0.962,0.003 -1.159,-0.399 -1.132,-1.238c0.053,-1.669 0.038,-3.341 0.051,-5.012c1.969,-0.009 3.939,-0.019 5.908,-0.028c9.072,0.016 18.145,0.031 27.218,0.047" style="fill:#243b78;fill-rule:nonzero;"/><path d="M14.453,70.241c-1.969,0.01 -3.938,0.019 -5.908,0.028c-0.057,-0.097 -0.088,-0.202 -0.094,-0.315c0.045,-1.267 0.09,-2.534 0.134,-3.801c1.252,-0.018 2.504,-0.037 3.756,-0.055c0.811,0.004 1.623,0.008 2.434,0.013c7.632,-0.006 15.264,-0.012 22.896,-0.018c0.508,0.011 1.015,0.029 1.522,0.031c2.659,0.009 2.659,0.007 2.516,2.783c-5.559,0.226 -11.117,0.457 -16.677,0.675c-3.268,0.128 -6.538,0.229 -9.807,0.365c-0.261,0.01 -0.515,0.192 -0.772,0.294" style="fill:#4f6db5;fill-rule:nonzero;"/><path d="M37.671,66.093c-7.632,0.006 -15.264,0.012 -22.896,0.018c1.43,-0.689 3.01,-0.411 4.507,-0.617c5.242,-0.72 10.515,-1.22 15.783,-1.737c1.304,-0.128 2.625,-0.078 3.91,-0.4c-0.435,0.912 -0.869,1.824 -1.304,2.736" style="fill:#2d4d8c;fill-rule:nonzero;"/><path d="M14.453,70.241c0.257,-0.102 0.511,-0.284 0.772,-0.294c3.269,-0.136 6.539,-0.237 9.807,-0.365c5.56,-0.218 11.118,-0.449 16.677,-0.675c-0.012,0.46 -0.025,0.921 -0.037,1.381c-9.073,-0.015 -18.146,-0.031 -27.219,-0.047" style="fill:#2d4d8c;fill-rule:nonzero;"/><path d="M8.585,66.153c-0.044,1.268 -0.089,2.535 -0.134,3.802c-0.311,-1.28 -0.568,-2.558 0.134,-3.802" style="fill:#b6e2eb;fill-rule:nonzero;"/><path d="M44.59,10.805l0,-0.835c-0.187,-2.191 -1.078,-4.047 -2.674,-5.57c-1.634,-1.485 -3.528,-2.228 -5.681,-2.228c-2.154,0 -4.029,0.761 -5.625,2.283c-1.635,1.56 -2.544,3.473 -2.73,5.738l0,0.612l16.71,0Zm-16.042,11.363c-1.931,-2.34 -2.895,-5.422 -2.895,-9.246c0,-3.825 0.964,-6.907 2.895,-9.246c1.931,-2.302 4.493,-3.454 7.687,-3.454c3.193,0 5.755,1.059 7.687,3.175c1.93,2.117 2.896,4.939 2.896,8.467l0,1.058l-18.938,0c0,3.23 0.761,5.812 2.284,7.742c1.522,1.931 3.546,2.896 6.071,2.896c1.894,0 3.601,-0.501 5.125,-1.504c1.559,-1.039 2.635,-2.395 3.23,-4.066l2.228,0c-0.372,2.191 -1.56,4.01 -3.565,5.459c-2.005,1.448 -4.345,2.172 -7.018,2.172c-3.194,0 -5.756,-1.15 -7.687,-3.453" style="fill:#243b78;fill-rule:nonzero;"/><path d="M63.806,22.001c1.522,-1.262 2.451,-2.877 2.785,-4.846l0,-5.458c-0.52,0.446 -1.467,0.817 -2.841,1.114c-1.3,0.297 -3.027,0.539 -5.179,0.724c-1.746,0.149 -3.213,0.743 -4.401,1.782c-1.189,1.003 -1.782,2.192 -1.782,3.565c0,1.412 0.613,2.599 1.838,3.565c1.188,1.002 2.636,1.504 4.345,1.504c1.967,0 3.712,-0.65 5.235,-1.95m-11.195,1.671c-1.671,-1.337 -2.507,-2.933 -2.507,-4.79c0,-1.782 0.817,-3.342 2.451,-4.678c1.596,-1.337 3.602,-2.117 6.016,-2.34c2.339,-0.223 4.251,-0.593 5.736,-1.114c1.522,-0.52 2.284,-1.132 2.284,-1.838l0,-2.117c0,-1.225 -0.668,-2.264 -2.005,-3.119c-1.3,-0.853 -2.896,-1.28 -4.79,-1.28c-1.782,0 -3.324,0.408 -4.623,1.225c-1.263,0.855 -1.894,1.857 -1.894,3.007l0,1.226l-2.117,0l0,-1.448c0,-1.596 0.836,-2.952 2.507,-4.066c1.708,-1.114 3.75,-1.671 6.127,-1.671c2.45,0 4.548,0.539 6.294,1.615c1.745,1.077 2.618,2.377 2.618,3.899l0,14.37c0,0.928 0.203,1.727 0.612,2.395c0.408,0.669 0.91,1.003 1.504,1.003c0.186,0 0.353,-0.018 0.502,-0.056c0.147,-0.037 0.259,-0.092 0.334,-0.167l0,1.058c-0.557,0.259 -1.263,0.39 -2.117,0.39c-0.855,0 -1.597,-0.372 -2.228,-1.114c-0.594,-0.742 -0.891,-1.633 -0.891,-2.673c-0.446,1.262 -1.392,2.283 -2.841,3.063c-1.448,0.78 -3.119,1.17 -5.012,1.17c-2.34,0 -4.327,-0.65 -5.96,-1.95" style="fill:#243b78;fill-rule:nonzero;"/><path d="M76.672,23.171c-1.782,-1.485 -2.673,-3.286 -2.673,-5.403l2.061,0c0,1.597 0.686,2.971 2.06,4.122c1.374,1.114 3.026,1.671 4.958,1.671c2.227,0 4.028,-0.501 5.402,-1.504c1.337,-1.039 2.005,-2.395 2.005,-4.066c0,-1.262 -0.706,-2.34 -2.116,-3.231c-1.412,-0.853 -3.305,-1.392 -5.681,-1.615c-2.526,-0.223 -4.531,-0.928 -6.016,-2.116c-1.523,-1.188 -2.283,-2.655 -2.283,-4.4c0,-1.968 0.76,-3.49 2.283,-4.568c1.522,-1.076 3.657,-1.615 6.406,-1.615c2.636,0 4.734,0.576 6.293,1.726c1.596,1.152 2.396,2.693 2.396,4.624l-2.117,0c-0.26,-1.449 -0.966,-2.581 -2.117,-3.398c-1.151,-0.816 -2.636,-1.226 -4.455,-1.226c-2.006,0 -3.603,0.41 -4.791,1.226c-1.188,0.817 -1.782,1.894 -1.782,3.231c0,1.262 0.724,2.339 2.172,3.23c1.411,0.854 3.305,1.393 5.682,1.615c2.487,0.223 4.492,0.967 6.015,2.228c1.485,1.263 2.228,2.841 2.228,4.735c0,2.116 -0.873,3.806 -2.618,5.068c-1.708,1.263 -4.01,1.894 -6.906,1.894c-2.526,0 -4.661,-0.743 -6.406,-2.228" style="fill:#243b78;fill-rule:nonzero;"/><path d="M96.779,32.027l1.727,0c0.854,0 1.782,-0.687 2.785,-2.061c1.002,-1.374 1.912,-3.174 2.729,-5.402l-9.079,-23.505l2.061,0l8.076,20.775l8.021,-20.775l2.172,0l-10.193,26.289c-0.706,1.894 -1.615,3.434 -2.729,4.623c-1.152,1.151 -2.303,1.727 -3.453,1.727l-2.117,0l0,-1.671Z" style="fill:#243b78;fill-rule:nonzero;"/><path d="M77.569,71.04c2.436,-2.019 3.921,-4.604 4.456,-7.753l0,-8.733c-0.833,0.713 -2.348,1.307 -4.545,1.782c-2.08,0.476 -4.843,0.862 -8.288,1.158c-2.793,0.238 -5.14,1.19 -7.04,2.852c-1.902,1.604 -2.852,3.507 -2.852,5.704c0,2.258 0.98,4.159 2.941,5.703c1.9,1.604 4.218,2.406 6.951,2.406c3.148,0 5.94,-1.038 8.377,-3.119m-17.913,2.674c-2.673,-2.139 -4.01,-4.693 -4.01,-7.664c0,-2.852 1.306,-5.347 3.921,-7.486c2.554,-2.139 5.762,-3.387 9.625,-3.743c3.743,-0.357 6.802,-0.95 9.179,-1.782c2.435,-0.832 3.654,-1.812 3.654,-2.941l0,-3.387c0,-1.961 -1.07,-3.623 -3.208,-4.99c-2.081,-1.367 -4.635,-2.05 -7.665,-2.05c-2.851,0 -5.317,0.654 -7.396,1.96c-2.02,1.368 -3.03,2.972 -3.03,4.813l0,1.96l-3.386,0l0,-2.317c0,-2.553 1.336,-4.723 4.01,-6.505c2.732,-1.783 6,-2.674 9.802,-2.674c3.922,0 7.277,0.862 10.071,2.585c2.792,1.723 4.188,3.802 4.188,6.238l0,22.992c0,1.486 0.326,2.763 0.981,3.832c0.653,1.069 1.455,1.604 2.406,1.604c0.296,0 0.564,-0.029 0.802,-0.089c0.237,-0.058 0.415,-0.147 0.534,-0.267l0,1.693c-0.891,0.415 -2.02,0.624 -3.386,0.624c-1.367,0 -2.555,-0.595 -3.565,-1.783c-0.95,-1.187 -1.426,-2.613 -1.426,-4.277c-0.712,2.021 -2.228,3.654 -4.544,4.901c-2.317,1.248 -4.991,1.872 -8.021,1.872c-3.743,0 -6.922,-1.041 -9.536,-3.119" style="fill:#af1d3a;fill-rule:nonzero;"/><path d="M96.35,75.496l0,-37.964l3.564,0l0,6.417c1.07,-2.258 2.704,-4.04 4.902,-5.348c2.198,-1.366 4.634,-2.049 7.308,-2.049c3.743,0 6.92,1.218 9.535,3.653c2.674,2.496 4.01,5.467 4.01,8.912l0,26.379l-3.564,0l0,-26.379c0,-2.613 -0.981,-4.841 -2.941,-6.684c-1.96,-1.84 -4.308,-2.762 -7.04,-2.762c-2.972,0 -5.615,1.011 -7.932,3.03c-2.317,2.08 -3.743,4.665 -4.278,7.753l0,25.042l-3.564,0Z" style="fill:#af1d3a;fill-rule:nonzero;"/><path d="M139.105,73.001c-2.555,-2.317 -3.832,-5.109 -3.832,-8.377l0,-27.092l3.564,0l0,27.092c0,2.437 0.921,4.545 2.763,6.327c1.841,1.724 4.069,2.585 6.684,2.585c3.089,0 5.851,-1.188 8.288,-3.565c2.435,-2.376 3.98,-5.376 4.634,-9.001l0,-23.438l3.565,0l0,37.964l-3.565,0l0,-6.683c-1.069,2.316 -2.793,4.188 -5.169,5.614c-2.317,1.366 -4.901,2.05 -7.753,2.05c-3.565,0 -6.625,-1.159 -9.179,-3.476" style="fill:#af1d3a;fill-rule:nonzero;"/><path d="M175.532,75.496l0,-37.964l3.564,0l0,6.417c1.07,-2.258 2.704,-4.04 4.902,-5.348c2.198,-1.366 4.634,-2.049 7.308,-2.049c3.743,0 6.92,1.218 9.535,3.653c2.674,2.496 4.01,5.467 4.01,8.912l0,26.379l-3.564,0l0,-26.379c0,-2.613 -0.981,-4.841 -2.941,-6.684c-1.96,-1.84 -4.308,-2.762 -7.04,-2.762c-2.972,0 -5.615,1.011 -7.932,3.03c-2.317,2.08 -3.743,4.665 -4.278,7.753l0,25.042l-3.564,0Z" style="fill:#af1d3a;fill-rule:nonzero;"/><path d="M217.663,71.13c-3.507,-4.04 -5.259,-8.912 -5.259,-14.615c0,-5.584 1.752,-10.367 5.258,-14.348c3.505,-3.98 7.753,-5.971 12.744,-5.971c4.099,0 7.604,1.218 10.516,3.654c2.91,2.495 4.367,5.467 4.367,8.911l-3.565,0c0,-2.495 -1.1,-4.633 -3.297,-6.416c-2.198,-1.782 -4.873,-2.673 -8.02,-2.673c-3.981,0 -7.397,1.634 -10.248,4.901c-2.794,3.328 -4.19,7.307 -4.19,11.942c0,4.754 1.395,8.823 4.19,12.209c2.851,3.386 6.267,5.079 10.248,5.079c3.089,0 5.703,-0.92 7.841,-2.762c2.198,-1.841 3.298,-4.04 3.298,-6.595l3.743,0c0,3.506 -1.457,6.506 -4.367,9.001c-2.912,2.495 -6.417,3.743 -10.516,3.743c-4.991,0 -9.239,-2.019 -12.744,-6.06" style="fill:#af1d3a;fill-rule:nonzero;"/><path d="M252.396,37.532l3.564,0l0,37.964l-3.564,0l0,-37.964Zm0,-14.882l3.564,0l0,5.436l-3.564,0l0,-5.436Z" style="fill:#af1d3a;fill-rule:nonzero;"/><path d="M292.477,68.634c2.554,-3.03 3.832,-7.07 3.832,-12.12c0,-5.228 -1.278,-9.387 -3.832,-12.477c-2.615,-3.148 -6.06,-4.723 -10.338,-4.723c-4.337,0 -7.784,1.575 -10.337,4.723c-2.616,3.09 -3.922,7.249 -3.922,12.477c0,5.05 1.306,9.09 3.922,12.12c2.553,3.03 6,4.545 10.337,4.545c4.278,0 7.723,-1.515 10.338,-4.545m-23.26,2.139c-3.268,-3.565 -4.901,-8.318 -4.901,-14.259c0,-6.119 1.633,-11.051 4.901,-14.794c3.209,-3.683 7.515,-5.525 12.922,-5.525c5.347,0 9.654,1.842 12.922,5.525c3.208,3.743 4.813,8.675 4.813,14.794c0,5.941 -1.605,10.694 -4.813,14.259c-3.268,3.564 -7.575,5.347 -12.922,5.347c-5.407,0 -9.713,-1.783 -12.922,-5.347" style="fill:#af1d3a;fill-rule:nonzero;"/><path d="M309.387,72.912c-2.852,-2.375 -4.277,-5.258 -4.277,-8.645l3.297,0c0,2.556 1.099,4.754 3.297,6.595c2.198,1.783 4.842,2.674 7.932,2.674c3.564,0 6.445,-0.802 8.644,-2.406c2.139,-1.663 3.209,-3.832 3.209,-6.506c0,-2.019 -1.13,-3.743 -3.387,-5.169c-2.258,-1.366 -5.289,-2.228 -9.09,-2.584c-4.041,-0.356 -7.249,-1.484 -9.625,-3.387c-2.437,-1.9 -3.654,-4.246 -3.654,-7.04c0,-3.148 1.217,-5.584 3.654,-7.307c2.436,-1.723 5.852,-2.585 10.249,-2.585c4.217,0 7.575,0.922 10.07,2.763c2.554,1.842 3.832,4.308 3.832,7.396l-3.386,0c-0.417,-2.317 -1.546,-4.128 -3.387,-5.436c-1.842,-1.306 -4.219,-1.96 -7.129,-1.96c-3.208,0 -5.764,0.654 -7.665,1.96c-1.901,1.308 -2.851,3.031 -2.851,5.169c0,2.021 1.159,3.743 3.475,5.169c2.258,1.367 5.288,2.228 9.09,2.584c3.98,0.357 7.188,1.546 9.625,3.565c2.376,2.021 3.565,4.545 3.565,7.575c0,3.387 -1.397,6.091 -4.189,8.11c-2.733,2.02 -6.416,3.03 -11.05,3.03c-4.041,0 -7.457,-1.188 -10.249,-3.565" style="fill:#af1d3a;fill-rule:nonzero;"/><rect x="337.572" y="73.115" width="2.423" height="2.548" style="fill:#243b78;"/><path d="M345.25,73.617c-1.644,-1.894 -2.465,-4.177 -2.465,-6.851c0,-2.617 0.821,-4.859 2.465,-6.726c1.643,-1.865 3.634,-2.798 5.974,-2.798c1.921,0 3.564,0.571 4.929,1.712c1.364,1.17 2.047,2.563 2.047,4.178l-1.671,0c0,-1.17 -0.516,-2.173 -1.546,-3.008c-1.03,-0.836 -2.284,-1.253 -3.759,-1.253c-1.867,0 -3.468,0.766 -4.805,2.297c-1.309,1.56 -1.963,3.426 -1.963,5.598c0,2.228 0.654,4.136 1.963,5.723c1.337,1.587 2.938,2.381 4.805,2.381c1.447,0 2.673,-0.431 3.676,-1.295c1.03,-0.863 1.545,-1.894 1.545,-3.091l1.755,0c0,1.643 -0.683,3.05 -2.047,4.219c-1.365,1.17 -3.008,1.755 -4.929,1.755c-2.34,0 -4.331,-0.947 -5.974,-2.841" style="fill:#243b78;fill-rule:nonzero;"/><path d="M372.561,72.447c1.197,-1.42 1.796,-3.313 1.796,-5.681c0,-2.45 -0.599,-4.4 -1.796,-5.848c-1.226,-1.476 -2.84,-2.214 -4.846,-2.214c-2.033,0 -3.648,0.738 -4.845,2.214c-1.226,1.448 -1.838,3.398 -1.838,5.848c0,2.368 0.612,4.261 1.838,5.681c1.197,1.42 2.812,2.131 4.845,2.131c2.006,0 3.62,-0.711 4.846,-2.131m-10.903,1.003c-1.532,-1.671 -2.298,-3.899 -2.298,-6.684c0,-2.868 0.766,-5.18 2.298,-6.935c1.504,-1.726 3.523,-2.59 6.057,-2.59c2.507,0 4.526,0.864 6.057,2.59c1.504,1.755 2.256,4.067 2.256,6.935c0,2.785 -0.752,5.013 -2.256,6.684c-1.531,1.671 -3.55,2.506 -6.057,2.506c-2.534,0 -4.553,-0.835 -6.057,-2.506" style="fill:#243b78;fill-rule:nonzero;"/><path d="M378.902,75.664l0,-17.795l1.671,0l0,3.007c0.501,-1.058 1.212,-1.894 2.131,-2.506c0.919,-0.641 1.907,-0.961 2.966,-0.961c1.253,0 2.353,0.334 3.3,1.003c0.974,0.696 1.601,1.573 1.879,2.631c0.529,-1.113 1.323,-1.991 2.382,-2.631c1.086,-0.669 2.269,-1.003 3.55,-1.003c1.588,0 2.952,0.543 4.094,1.629c1.114,1.086 1.671,2.396 1.671,3.927l0,12.699l-1.671,0l0,-12.699c0,-1.17 -0.404,-2.173 -1.211,-3.008c-0.78,-0.835 -1.741,-1.253 -2.883,-1.253c-1.309,0 -2.479,0.46 -3.508,1.378c-1.031,0.919 -1.672,2.089 -1.922,3.509l0,12.073l-1.671,0l0,-12.699c0,-1.17 -0.376,-2.173 -1.128,-3.008c-0.752,-0.835 -1.657,-1.253 -2.715,-1.253c-1.253,0 -2.381,0.487 -3.384,1.462c-0.975,1.002 -1.602,2.256 -1.88,3.76l0,11.738l-1.671,0Z" style="fill:#243b78;fill-rule:nonzero;"/></g></svg>